<svg width="1857" height="538" viewBox="0 0 1857 538" fill="none" xmlns="http://www.w3.org/2000/svg">
<path d="M658.811 251.253C654.158 245.244 648.702 240.357 642.284 236.831C632.977 231.704 622.548 229.06 611.075 229.06C597.837 229.06 585.963 232.024 575.614 237.793C565.184 243.642 557.001 251.734 550.984 262.15C544.966 272.565 541.918 284.664 541.918 298.605C541.918 312.546 544.966 324.724 550.984 335.22C557.001 345.716 565.184 353.888 575.614 359.737C586.044 365.586 597.837 368.47 611.075 368.47C622.949 368.47 633.539 365.826 642.845 360.618C649.504 356.853 655.201 351.725 659.854 345.315V366.948H683.602V175.699H658.811V251.173V251.253ZM653.035 324.083C649.023 331.374 643.487 336.983 636.507 340.989C629.528 344.915 621.745 346.918 613.161 346.918C604.576 346.918 596.553 344.915 589.654 340.989C582.754 337.063 577.299 331.374 573.127 324.083C569.035 316.792 566.949 308.299 566.949 298.685C566.949 289.07 569.035 280.417 573.127 273.286C577.218 266.156 582.754 260.627 589.654 256.701C596.553 252.776 604.336 250.773 613.161 250.773C621.986 250.773 629.528 252.776 636.507 256.701C643.487 260.627 648.943 266.236 653.035 273.286C657.046 280.417 659.132 288.91 659.132 298.685C659.132 308.46 657.126 316.792 653.035 324.083V324.083Z" fill="white"/>
<path d="M814.294 237.873C804.105 232.024 792.472 229.14 779.154 229.14C765.836 229.14 754.363 232.104 743.934 238.033C733.504 243.962 725.321 252.135 719.384 262.63C713.447 273.126 710.478 285.144 710.478 298.685C710.478 312.225 713.527 324.324 719.624 334.739C725.722 345.235 734.306 353.488 745.458 359.497C756.53 365.506 769.446 368.55 784.048 368.55C795.441 368.55 805.71 366.627 814.856 362.862C824.082 359.096 831.784 353.568 837.962 346.357L824.243 330.413C819.269 335.941 813.412 340.027 806.833 342.751C800.174 345.475 792.873 346.837 784.77 346.837C774.982 346.837 766.237 344.834 758.696 340.909C751.154 336.983 745.217 331.454 741.046 324.324C737.917 319.036 735.991 313.267 735.189 306.937H846.225C846.386 305.735 846.546 304.454 846.627 303.091C846.707 301.729 846.787 300.528 846.787 299.486C846.787 285.385 843.899 273.046 838.122 262.47C832.346 251.894 824.403 243.722 814.214 237.873H814.294ZM756.209 255.82C762.948 251.974 770.57 250.051 779.154 250.051C787.739 250.051 795.601 251.974 802.26 255.82C808.919 259.666 814.054 265.034 817.905 271.924C820.793 277.132 822.478 282.901 823.12 289.231H735.189C735.911 282.981 737.676 277.293 740.484 272.085C744.255 265.114 749.55 259.746 756.209 255.82V255.82Z" fill="white"/>
<path d="M989.113 230.342H964.322V366.948H989.113V230.342Z" fill="white"/>
<path d="M921.961 174.177C907.52 174.177 896.368 178.183 888.506 186.195C880.644 194.207 876.793 204.863 876.793 218.324V230.422H853.526V250.772H876.793V367.028H901.583V250.772H940.815V230.422H901.102V218.564C901.102 210.632 903.027 204.703 906.798 200.617C910.569 196.611 916.105 194.528 923.325 194.528C926.936 194.528 930.385 195.088 933.675 196.21C936.964 197.332 939.852 198.934 942.42 201.017L949.881 182.189C946.431 179.465 942.259 177.382 937.365 176.1C932.471 174.818 927.337 174.177 922.042 174.177H921.961Z" fill="white"/>
<path d="M1064.29 256.701C1071.35 252.776 1079.37 250.772 1088.28 250.772C1095.66 250.772 1102.64 252.375 1109.05 255.58C1115.47 258.785 1120.93 263.672 1125.42 270.402L1144.28 258.304C1138.9 248.689 1131.44 241.398 1121.73 236.511C1112.02 231.624 1100.95 229.14 1088.6 229.14C1074.64 229.14 1062.2 232.104 1051.29 238.033C1040.38 243.962 1031.79 252.135 1025.62 262.63C1019.44 273.126 1016.31 285.144 1016.31 298.685C1016.31 312.225 1019.44 324.324 1025.62 334.739C1031.79 345.235 1040.38 353.488 1051.29 359.497C1062.2 365.506 1074.64 368.55 1088.6 368.55C1100.95 368.55 1112.02 365.986 1121.73 360.939C1131.44 355.891 1138.98 348.6 1144.28 339.146L1125.42 327.288C1120.93 334.018 1115.47 338.906 1109.05 342.11C1102.64 345.315 1095.66 346.918 1088.28 346.918C1079.29 346.918 1071.35 344.915 1064.29 340.989C1057.23 337.063 1051.61 331.454 1047.52 324.243C1043.43 317.033 1041.34 308.54 1041.34 298.765C1041.34 288.99 1043.43 280.497 1047.52 273.367C1051.61 266.236 1057.23 260.707 1064.29 256.782V256.701Z" fill="white"/>
<path d="M1267.99 235.55C1259.48 231.223 1249.62 229.14 1238.46 229.14C1226.11 229.14 1215.2 231.624 1205.97 236.591C1199.55 240.036 1194.34 244.523 1190.25 249.811V175.699H1165.46V366.948H1190.25V296.602C1190.25 286.667 1192.01 278.334 1195.54 271.604C1199.07 264.874 1204.13 259.826 1210.62 256.381C1217.2 252.936 1224.83 251.253 1233.57 251.253C1245.28 251.253 1254.35 254.618 1260.77 261.268C1267.19 267.999 1270.48 277.934 1270.48 291.153V366.948H1295.27V288.349C1295.27 274.969 1292.86 263.832 1288.05 255.099C1283.23 246.366 1276.57 239.796 1268.07 235.55H1267.99Z" fill="white"/>
<path d="M1379.99 229.06C1369.16 229.06 1358.81 230.582 1348.86 233.546C1338.99 236.591 1330.49 240.918 1323.43 246.526L1333.78 265.114C1339.07 260.627 1345.65 257.102 1353.43 254.378C1361.13 251.734 1369.08 250.372 1377.18 250.372C1389.37 250.372 1398.52 253.256 1404.7 259.025C1410.8 264.794 1413.84 272.886 1413.84 283.382V288.269H1374.61C1361.05 288.269 1350.22 290.112 1342.2 293.717C1334.18 297.323 1328.4 302.13 1324.87 308.139C1321.34 314.148 1319.58 320.878 1319.58 328.249C1319.58 335.621 1321.66 342.912 1325.75 349.001C1329.84 355.09 1335.78 359.897 1343.4 363.342C1351.02 366.788 1359.93 368.47 1370.12 368.47C1382.72 368.47 1393.06 366.147 1401.33 361.42C1407.18 358.054 1411.68 353.888 1415.05 348.841V366.948H1438.55V284.503C1438.55 265.755 1433.5 251.894 1423.31 242.76C1413.12 233.627 1398.68 229.06 1379.99 229.06V229.06ZM1398.68 343.232C1391.7 347.318 1383.6 349.401 1374.29 349.401C1364.98 349.401 1357.44 347.398 1352.07 343.312C1346.69 339.306 1344.04 333.938 1344.04 327.208C1344.04 321.359 1346.21 316.392 1350.46 312.225C1354.8 308.139 1363.14 306.056 1375.49 306.056H1413.68V325.125C1410.55 333.057 1405.58 339.066 1398.6 343.152L1398.68 343.232Z" fill="white"/>
<path d="M1497.36 230.342H1472.57V366.948H1497.36V230.342Z" fill="white"/>
<path d="M1655.09 255.099C1650.28 246.366 1643.62 239.796 1635.11 235.55C1626.61 231.223 1616.74 229.14 1605.59 229.14C1593.24 229.14 1582.32 231.624 1573.1 236.591C1566.2 240.277 1560.58 245.164 1556.33 251.093V230.422H1532.58V367.028H1557.37V296.682C1557.37 286.747 1559.14 278.414 1562.67 271.684C1566.2 264.954 1571.25 259.906 1577.75 256.461C1584.33 253.016 1591.95 251.333 1600.7 251.333C1612.41 251.333 1621.48 254.698 1627.89 261.348C1634.31 268.079 1637.6 278.014 1637.6 291.234V367.028H1662.39V288.429C1662.39 275.049 1659.99 263.912 1655.17 255.179L1655.09 255.099Z" fill="white"/>
<path d="M369.747 375.681V162.319C415.718 176.02 449.334 218.644 449.334 269.04C449.334 319.436 415.718 362.06 369.747 375.761V375.681ZM337.896 125.864V246.526L319.684 228.339L317.357 182.99L336.372 125.944C324.177 126.104 312.463 127.787 301.231 130.751L292.085 158.313L266.091 145.253C255.822 151.262 246.275 158.393 237.77 166.646L285.988 190.762L287.432 218.324L259.833 216.881L235.684 168.729C227.421 177.221 220.2 186.676 214.263 197.011L227.341 222.971L199.742 232.104C196.774 243.321 195.009 255.099 194.928 267.197L252.051 248.209L297.461 250.532L315.673 268.72L297.461 286.907L252.051 289.231L194.928 270.242C195.089 282.42 196.774 294.118 199.742 305.335L227.341 314.469L214.263 340.428C220.281 350.683 227.421 360.218 235.684 368.711L259.833 320.558L287.432 319.116L285.988 346.677L237.77 370.794C246.275 379.046 255.742 386.257 266.091 392.186L292.085 379.126L301.231 406.688C312.463 409.652 324.257 411.415 336.372 411.495L317.357 354.449L319.684 309.101L337.896 290.913V411.575C417.082 411.575 481.185 347.478 481.185 268.479C481.185 189.48 417.002 125.864 337.896 125.864Z" fill="#FF00AF"/>
</svg>
