<svg width="484" height="405" viewBox="0 0 484 405" fill="none" xmlns="http://www.w3.org/2000/svg">
<path d="M242.759 389.171V67.4294M242.759 389.171C276.912 335.294 318.655 329.982 422.632 323.153V75.7765M242.759 389.171C210.124 336.053 164.586 326.188 62.886 323.153V75.7765M242.759 67.4294C292.091 12.0353 355.844 12.0353 422.632 9V75.7765M242.759 67.4294C207.088 21.9 150.166 9 62.886 9.75884V75.7765M422.632 75.7765H475V396H292.091M62.886 75.7765H9V396H187.355M107.664 108.406C142.617 110.766 162.036 115.101 196.463 128.135M107.664 172.906C142.617 175.266 162.036 179.601 196.463 192.635M107.664 236.647C142.617 239.007 162.036 243.342 196.463 256.376M377.094 108.406C342.142 110.766 322.723 115.101 288.296 128.135M377.094 172.906C342.142 175.266 322.723 179.601 288.296 192.635M377.094 236.647C342.142 239.007 322.723 243.342 288.296 256.376" stroke="url(#paint0_linear_38_67)" stroke-width="18" stroke-linecap="round" stroke-linejoin="round"/>
<defs>
<linearGradient id="paint0_linear_38_67" x1="439.329" y1="-16.0412" x2="8.31938" y2="427.188" gradientUnits="userSpaceOnUse">
<stop offset="0.199044" stop-color="#FC1DAE"/>
<stop offset="1" stop-color="#00F6FF"/>
</linearGradient>
</defs>
</svg>
