<svg width="276" height="276" viewBox="0 0 276 276" fill="none" xmlns="http://www.w3.org/2000/svg">
<rect width="276" height="276" rx="55" fill="#F3F3F3"/>
<path d="M138.793 209.764V85.5565M138.793 209.764C151.985 188.965 168.109 186.914 208.272 184.278V88.7788M138.793 209.764C126.187 189.258 108.598 185.449 69.3143 184.278V88.7788M138.793 85.5565C157.849 64.1718 182.474 64.1718 208.272 63V88.7788M138.793 85.5565C125.015 67.98 103.028 63 69.3143 63.2929V88.7788M208.272 88.7788H228.5V212.4H157.849M69.3143 88.7788H48.5V212.4H117.393M86.6108 101.375C100.112 102.286 107.613 103.96 120.91 108.992M86.6108 126.275C100.112 127.186 107.613 128.86 120.91 133.892M86.6108 150.882C100.112 151.794 107.613 153.467 120.91 158.499M190.682 101.375C177.181 102.286 169.68 103.96 156.383 108.992M190.682 126.275C177.181 127.186 169.68 128.86 156.383 133.892M190.682 150.882C177.181 151.794 169.68 153.467 156.383 158.499" stroke="url(#paint0_linear_86_1002)" stroke-width="9.24951" stroke-linecap="round" stroke-linejoin="round"/>
<defs>
<linearGradient id="paint0_linear_86_1002" x1="214.722" y1="53.3329" x2="48.3344" y2="224.535" gradientUnits="userSpaceOnUse">
<stop offset="0.199044" stop-color="#FC1DAE"/>
<stop offset="1" stop-color="#00F6FF"/>
</linearGradient>
</defs>
</svg>
