<svg viewBox="0 0 78 78" fill="none"
    xmlns="http://www.w3.org/2000/svg">
    <path d="M0 78L78 0H43L0 43V78Z" fill="url(#paint0_linear_504_4332)"/>
    <path d="M18.8561 40.2629C18.8401 40.2629 18.812 40.2669 18.772 40.2749C18.7239 40.2749 18.6718 40.2469 18.6157 40.1908C18.3753 39.8542 17.9746 39.3734 17.4136 38.7483C17.085 38.3877 16.8366 38.0992 16.6683 37.8828C16.5 37.6664 16.3878 37.4741 16.3317 37.3058C16.4439 37.2737 16.5441 37.2857 16.6323 37.3418C16.7124 37.3899 16.8046 37.4661 16.9087 37.5702C17.0049 37.6664 17.0971 37.7826 17.1852 37.9188C17.2173 37.9669 17.2694 38.035 17.3415 38.1232C17.4056 38.2033 17.4657 38.2715 17.5218 38.3276C17.5619 38.3676 17.618 38.4077 17.6901 38.4478C17.7702 38.4798 17.8223 38.4998 17.8464 38.5079C17.8784 38.5399 17.9626 38.6481 18.0988 38.8324C18.227 39.0087 18.4554 39.2612 18.784 39.5897C18.8241 39.6298 18.8721 39.6699 18.9282 39.7099C18.9843 39.734 19.0284 39.746 19.0605 39.746L19.4331 39.3734L19.361 39.1329L18.9403 38.8084C18.3472 38.3756 17.9185 38.027 17.654 37.7626C17.5178 37.6263 17.4096 37.4941 17.3295 37.3659C17.2573 37.2297 17.1932 37.1335 17.1371 37.0774C17.1131 37.0533 17.073 37.0373 17.0169 37.0293C16.9608 37.0053 16.9208 36.9972 16.8967 37.0053C16.9368 36.9331 16.9769 36.8129 17.0169 36.6446C17.057 36.4763 17.085 36.3682 17.1011 36.3201C17.1812 36.4002 17.2654 36.4283 17.3535 36.4042C17.4657 36.292 17.5939 36.1478 17.7382 35.9715C17.8904 35.7872 18.0147 35.6389 18.1108 35.5267C18.1268 35.4786 18.1389 35.4345 18.1469 35.3945C18.1549 35.3544 18.1629 35.3223 18.1709 35.2983C18.1709 35.3143 18.1789 35.3304 18.195 35.3464C18.2671 35.4185 18.4033 35.3865 18.6037 35.2502C18.804 35.098 18.9763 34.9497 19.1206 34.8055C19.1606 34.7654 19.2328 34.6372 19.3369 34.4208C19.4411 34.1884 19.4772 34.0562 19.4451 34.0241L19.373 33.952L19.0605 34.2164L17.1852 36.0917L17.1612 36.0676C17.1051 36.1237 17.0209 36.2239 16.9087 36.3682C16.7965 36.5124 16.6964 36.6286 16.6082 36.7168C16.5601 36.7488 16.46 36.8249 16.3077 36.9452C16.1634 37.0574 16.0713 37.1255 16.0312 37.1495C15.9671 37.0854 15.923 37.0013 15.899 36.8971C15.8749 36.7929 15.8749 36.7288 15.899 36.7047C15.9391 36.6807 15.9952 36.6486 16.0673 36.6086C16.1394 36.5525 16.2035 36.5044 16.2596 36.4643C16.3478 36.3762 16.48 36.1959 16.6563 35.9234C16.8326 35.6509 16.9809 35.4546 17.1011 35.3344C17.1091 35.3264 17.1612 35.3063 17.2573 35.2743C17.3455 35.2342 17.4096 35.1941 17.4497 35.1541C17.4577 35.13 17.4697 35.094 17.4857 35.0459C17.4937 34.9898 17.5018 34.9497 17.5098 34.9257C17.5659 34.8856 17.634 34.8495 17.7141 34.8175C17.7943 34.7694 17.8544 34.7333 17.8944 34.7093C17.9505 34.6372 18.0066 34.557 18.0627 34.4689C18.1108 34.3727 18.1469 34.3046 18.1709 34.2645C18.3633 34.0722 18.6397 33.8518 19.0004 33.6034C19.361 33.3549 19.6575 33.2027 19.8899 33.1466C20.1544 33.0745 20.4869 33.1105 20.8876 33.2548C21.2963 33.391 21.697 33.5753 22.0897 33.8077C22.4824 34.0401 22.7829 34.2605 22.9913 34.4689C23.1756 34.6532 23.3198 34.9016 23.424 35.2142C23.5282 35.5107 23.6284 35.8593 23.7245 36.26C23.8768 36.268 24.0731 36.264 24.3136 36.2479C24.6822 36.2159 24.9987 36.2359 25.2632 36.3081C25.5196 36.3722 25.8122 36.5685 26.1407 36.8971C26.1808 36.9371 26.2569 36.9812 26.3691 37.0293C26.4733 37.0694 26.5775 37.1415 26.6817 37.2457C27.1304 37.6945 27.3869 38.1833 27.451 38.7122C27.5151 39.2251 27.5071 39.7941 27.427 40.4192C27.3949 40.6115 27.3789 40.7317 27.3789 40.7798C27.3869 40.916 27.2426 41.1324 26.9461 41.4289L26.6937 41.6814C26.6696 41.7054 26.6095 41.7976 26.5134 41.9578C26.4332 42.1181 26.2249 42.3665 25.8883 42.7031L25.6599 42.7873C25.4676 42.9796 25.2031 43.2761 24.8665 43.6768C24.7784 43.781 24.6702 43.9052 24.542 44.0495C24.4137 44.1937 24.2575 44.358 24.0731 44.5423L23.7366 44.8549L23.4481 44.8549L18.8561 40.2629ZM19.6134 34.1203C19.5092 34.2244 19.4491 34.3326 19.4331 34.4448C19.4171 34.557 19.4612 34.6652 19.5653 34.7694C19.6695 34.6652 19.7376 34.549 19.7697 34.4208C19.8017 34.2926 19.7857 34.1643 19.7216 34.0361L19.6134 34.1203ZM19.938 33.7957C19.8578 33.8758 19.8298 33.992 19.8538 34.1443C19.8859 34.2886 19.946 34.4048 20.0341 34.4929C20.1463 34.3807 20.2666 34.2445 20.3948 34.0842C20.523 33.9239 20.5671 33.8238 20.527 33.7837C20.4549 33.7116 20.3547 33.6835 20.2265 33.6995C20.0902 33.7076 19.9941 33.7396 19.938 33.7957ZM19.6615 38.8324C19.8138 38.8404 19.938 38.8204 20.0341 38.7723C20.1303 38.7082 20.2545 38.6 20.4068 38.4478C20.4308 38.4237 20.6312 38.2314 21.0078 37.8708C21.3845 37.5101 21.681 37.0934 21.8974 36.6206C22.1057 36.1398 22.0817 35.7711 21.8253 35.5147L21.5848 35.4426C21.5768 35.4185 21.5648 35.3825 21.5488 35.3344C21.5408 35.2783 21.5327 35.2382 21.5247 35.2142C21.3404 35.0298 20.9878 34.8856 20.4669 34.7814C20.2505 34.7413 20.0061 34.8175 19.7336 35.0098C19.4612 35.2021 19.1166 35.4906 18.6998 35.8753C18.3713 36.1718 18.1268 36.3842 17.9666 36.5124C17.8063 36.6246 17.6781 36.6647 17.5819 36.6326C17.5819 36.7608 17.6059 36.873 17.654 36.9692C17.7101 37.0574 17.7903 37.1535 17.8944 37.2577C18.0948 37.458 18.3953 37.7265 18.796 38.0631C19.1967 38.3997 19.4852 38.6561 19.6615 38.8324ZM20.4068 34.4088C20.4469 34.4008 20.4909 34.3887 20.539 34.3727C20.5871 34.3567 20.6232 34.3366 20.6472 34.3126C20.6953 34.2645 20.7394 34.1243 20.7794 33.8919L20.6232 34.0241L20.551 34.0962C20.4549 34.1924 20.4068 34.2966 20.4068 34.4088ZM22.4022 35.5147C22.4664 35.5628 22.5385 35.5467 22.6186 35.4666C22.811 35.2743 22.9071 35.138 22.9071 35.0579C22.9071 34.9777 22.859 34.8976 22.7629 34.8175C22.6747 34.7293 22.6106 34.6652 22.5705 34.6251C22.3542 34.4088 22.0657 34.1924 21.705 33.976C21.3444 33.7596 21.088 33.7276 20.9357 33.8798C20.8556 33.96 20.8195 34.0842 20.8275 34.2525C20.8355 34.4048 20.8796 34.521 20.9598 34.6011C21.0479 34.5129 21.1841 34.4168 21.3685 34.3126L21.3685 34.4809L21.4646 34.4088C21.5047 34.3687 21.5287 34.3366 21.5368 34.3126C21.5448 34.2725 21.5408 34.2204 21.5247 34.1563C21.5969 34.2285 21.6409 34.3527 21.657 34.529C21.665 34.6011 21.681 34.6732 21.705 34.7453C21.7211 34.8095 21.7571 34.8696 21.8132 34.9257C21.8373 34.9497 21.8974 34.9457 21.9935 34.9136C22.0977 34.8736 22.1658 34.8455 22.1979 34.8295C22.1338 34.9737 22.1057 35.106 22.1137 35.2262C22.1779 35.1621 22.23 35.0859 22.27 34.9978C22.3181 34.9016 22.3662 34.8295 22.4143 34.7814L22.4022 35.5147ZM22.6306 36.0316C22.6867 35.8633 22.7148 35.7391 22.7148 35.6589L22.4864 35.8873L22.6306 36.0316ZM22.7989 36.4884C22.9191 36.3682 23.0193 36.2119 23.0995 36.0196C23.1716 35.8192 23.1515 35.6629 23.0394 35.5507L22.9792 35.5147L22.7148 36.4042L22.7989 36.4884ZM23.1475 43.8571C23.3719 44.0815 23.5402 44.1937 23.6524 44.1937L24.0491 43.6768L23.965 43.5927L23.7486 43.809C23.7005 43.761 23.6684 43.6808 23.6524 43.5686C23.6284 43.4484 23.6003 43.3723 23.5683 43.3402C23.4881 43.2601 23.388 43.224 23.2677 43.232C23.1556 43.232 23.0434 43.2561 22.9312 43.3042C22.9552 43.2641 22.9552 43.208 22.9312 43.1359C22.9151 43.0557 22.9031 43.0036 22.8951 42.9796C22.8711 42.9556 22.815 42.9395 22.7268 42.9315C22.6467 42.9155 22.5906 42.9155 22.5585 42.9315L22.7148 42.7753C22.6347 42.6951 22.5345 42.619 22.4143 42.5469C22.3742 42.5228 22.3301 42.4948 22.282 42.4627C22.234 42.4307 22.1819 42.3866 22.1258 42.3305C22.1097 42.3145 22.0937 42.2824 22.0777 42.2343C22.0697 42.1782 22.0176 42.1021 21.9214 42.0059C21.8573 41.9418 21.7852 41.8857 21.705 41.8376C21.6249 41.7895 21.5568 41.7375 21.5007 41.6814C21.5087 41.6733 21.5247 41.6733 21.5488 41.6814C21.5648 41.6814 21.5728 41.6814 21.5728 41.6814C21.5808 41.6413 21.5808 41.6012 21.5728 41.5612C21.5568 41.5131 21.5368 41.477 21.5127 41.453L20.539 40.4793C20.5871 40.2869 20.6312 40.0505 20.6713 39.77C20.7113 39.4735 20.7193 39.2171 20.6953 39.0007L20.4068 39.0007C20.2866 39.0408 20.0822 39.173 19.7937 39.3974C19.4972 39.6138 19.2688 39.8021 19.1085 39.9624L19.1206 39.9984C19.1366 40.0145 19.1887 40.0345 19.2768 40.0585C19.357 40.0746 19.4091 40.0946 19.4331 40.1187C19.5132 40.1988 19.6094 40.311 19.7216 40.4552C19.8498 40.6476 20.0181 40.8479 20.2265 41.0563C20.3627 41.1925 20.4829 41.3047 20.5871 41.3929C20.6913 41.481 20.7794 41.5531 20.8516 41.6092C21.1401 41.8336 21.3564 42.0179 21.5007 42.1622C21.6129 42.2744 21.693 42.3625 21.7411 42.4267L21.8733 42.4146C21.8333 42.4868 21.8773 42.5869 22.0056 42.7151C22.0937 42.8033 22.2099 42.8874 22.3542 42.9676C22.3782 42.9916 22.4183 43.0237 22.4744 43.0638C22.5305 43.0878 22.5826 43.1239 22.6306 43.1719C22.6867 43.228 22.7509 43.3242 22.823 43.4604C22.8951 43.5806 23.0033 43.7129 23.1475 43.8571ZM21.8132 37.7385C21.5408 38.011 21.2683 38.3716 20.9958 38.8204C20.7153 39.2612 20.7153 39.6218 20.9958 39.9023C21.3003 39.149 21.4766 38.6281 21.5247 38.3396V39.0849L21.6089 39.169C21.7211 39.0568 21.7852 38.9606 21.8012 38.8805C21.8172 38.8004 21.8172 38.7042 21.8012 38.592C21.7772 38.4718 21.7772 38.3356 21.8012 38.1833C21.8172 38.1032 21.8773 37.995 21.9815 37.8587C22.0697 37.7546 22.1338 37.6584 22.1739 37.5702C22.2139 37.4661 22.2179 37.3499 22.1859 37.2216C22.1779 37.2136 22.1578 37.2096 22.1258 37.2096C22.0937 37.2096 22.0697 37.2096 22.0536 37.2096C22.0136 37.2497 21.9615 37.3418 21.8974 37.4861C21.8253 37.6223 21.7972 37.7065 21.8132 37.7385ZM22.4744 36.7889C22.4263 36.837 22.3622 37.0453 22.282 37.414C22.2019 37.7826 22.1458 38.1432 22.1137 38.4958L22.3181 38.3155C22.4543 38.1793 22.5345 38.0431 22.5585 37.9068C22.5906 37.7626 22.5665 37.5863 22.4864 37.3779C22.5425 37.434 22.5906 37.5141 22.6306 37.6183C22.6627 37.7145 22.6907 37.7746 22.7148 37.7986C22.843 37.6704 22.9512 37.458 23.0394 37.1615C23.1275 36.865 23.1275 36.6727 23.0394 36.5845C23.0233 36.5685 22.9352 36.5925 22.7749 36.6567C22.6066 36.7128 22.5064 36.7568 22.4744 36.7889ZM24.7102 42.5589C24.6702 42.5989 24.578 42.7472 24.4338 43.0036C24.2815 43.2521 24.2294 43.4003 24.2775 43.4484L24.3737 43.5446C24.4618 43.4564 24.546 43.3162 24.6261 43.1239C24.6982 42.9235 24.7503 42.8073 24.7824 42.7753C24.8224 42.7512 24.8866 42.7192 24.9747 42.6791C25.0548 42.631 25.1149 42.5949 25.155 42.5709L25.2031 42.5228C25.2191 42.5068 25.2231 42.4467 25.2151 42.3425C25.2071 42.2383 25.1871 42.1622 25.155 42.1141C25.1871 42.1301 25.2592 42.1702 25.3714 42.2343C25.4756 42.2904 25.5477 42.2984 25.5878 42.2584L26.1768 41.6693L26.3331 41.6814L26.285 41.4409C26.3411 41.4009 26.4092 41.3408 26.4893 41.2606C26.5615 41.1885 26.6135 41.0883 26.6456 40.9601C26.6777 40.8319 26.7017 40.7517 26.7177 40.7197C26.9581 40.2709 27.1184 39.8943 27.1986 39.5897C27.2787 39.2692 27.2707 38.9566 27.1745 38.6521C27.0703 38.3396 26.8459 38.011 26.5013 37.6664C26.3811 37.5462 26.0446 37.3218 25.4916 36.9932C24.9386 36.6486 24.6021 36.4964 24.4819 36.5364C24.4418 36.5605 24.3857 36.6006 24.3136 36.6567C24.2414 36.6967 24.1813 36.7328 24.1332 36.7648C24.0691 36.7969 23.993 36.8249 23.9049 36.849C23.8247 36.865 23.7526 36.8971 23.6885 36.9452C23.6164 36.9852 23.5122 37.0734 23.3759 37.2096C23.2718 37.3138 23.2477 37.3939 23.3038 37.45C23.4641 37.418 23.6805 37.2898 23.9529 37.0654C23.9529 37.0814 23.9609 37.0974 23.977 37.1134C24.0331 37.1695 24.1733 37.1896 24.3977 37.1736C24.6221 37.1415 24.7503 37.1335 24.7824 37.1495C24.8465 37.1655 24.9707 37.2176 25.155 37.3058C25.3473 37.3859 25.4716 37.43 25.5277 37.438C25.5116 37.5181 25.5076 37.5943 25.5156 37.6664C25.5237 37.7385 25.5397 37.7866 25.5637 37.8107C25.5878 37.7866 25.6278 37.7626 25.6839 37.7385C25.748 37.7065 25.7921 37.7025 25.8162 37.7265C25.8562 37.7666 25.9083 37.8587 25.9724 38.003C26.0365 38.1312 26.0606 38.2114 26.0446 38.2434L26.2008 38.2554L26.3451 37.8227C26.4012 37.8788 26.4172 37.9589 26.3932 38.0631C26.3691 38.1673 26.3611 38.2634 26.3691 38.3516C26.3771 38.4237 26.4412 38.5199 26.5615 38.6401L26.7898 38.8444C26.7818 38.8364 26.7858 38.8084 26.8019 38.7603C26.8099 38.7042 26.8259 38.6641 26.85 38.6401C26.866 38.6241 26.894 38.612 26.9341 38.604C26.9742 38.596 27.0022 38.6 27.0182 38.6161C27.0022 38.7603 26.886 38.9406 26.6696 39.157C26.7498 39.2371 26.8219 39.3573 26.886 39.5176C26.7818 39.7821 26.6456 40.0626 26.4773 40.3591C26.301 40.6476 26.1247 40.88 25.9484 41.0563C25.8202 41.1845 25.732 41.2406 25.6839 41.2246C25.6439 41.2005 25.6158 41.1965 25.5998 41.2125C25.5517 41.2767 25.5076 41.3528 25.4676 41.4409C25.4275 41.5131 25.4034 41.5612 25.3954 41.5852C25.2191 41.7936 24.9507 42.078 24.59 42.4387L24.7102 42.5589ZM23.8087 42.4026C23.985 42.2263 24.2655 41.9779 24.6501 41.6573C25.0348 41.3368 25.3153 41.0883 25.4916 40.912C25.7561 40.6476 25.9804 40.3591 26.1648 40.0465C26.3491 39.718 26.3611 39.4174 26.2008 39.145C26.0566 38.9366 25.9203 38.7603 25.7921 38.6161C25.6639 38.4718 25.5156 38.3155 25.3473 38.1472C25.0188 37.8187 24.7102 37.6464 24.4217 37.6303C24.1332 37.5983 23.8688 37.6624 23.6284 37.8227C23.396 37.9749 23.1315 38.1993 22.835 38.4958C22.4744 38.8565 22.1739 39.189 21.9334 39.4936C21.685 39.7901 21.4766 40.1187 21.3084 40.4793C21.2603 40.5594 21.3965 40.7838 21.7171 41.1524C22.0376 41.5211 22.3582 41.8657 22.6787 42.1862C22.823 42.3305 22.9592 42.4427 23.0874 42.5228C23.2157 42.603 23.3639 42.6631 23.5322 42.7031L23.8087 42.4026ZM23.965 43.3042C24.0211 43.2481 24.0972 43.1239 24.1934 42.9315L23.8928 43.232L23.965 43.3042ZM27.4139 35.5758C27.0132 35.1751 26.6446 34.6622 26.308 34.0372C25.9714 33.4121 25.735 32.8231 25.5988 32.2701L25.6348 32.2581C25.6829 32.21 25.731 32.0577 25.7791 31.8013C25.8271 31.5609 25.8712 31.4206 25.9113 31.3806C25.9514 31.3084 26.0596 31.1281 26.2359 30.8396C26.4202 30.5431 26.6165 30.2907 26.8249 30.0823L26.9331 30.1905C27.0052 30.0382 27.0813 29.914 27.1615 29.8178C27.2496 29.7137 27.3418 29.6135 27.4379 29.5173C27.6864 29.2689 27.9508 29.0525 28.2313 28.8682C28.5198 28.6759 28.7242 28.6398 28.8444 28.76C29.0447 28.5597 29.2731 28.4755 29.5296 28.5076C29.786 28.5236 30.0905 28.5957 30.4431 28.724C30.5714 28.772 30.6916 28.8121 30.8038 28.8442C30.924 28.8682 31.0161 28.8722 31.0802 28.8562L32.114 29.89L32.0539 30.2626L32.1862 30.2746C32.1381 30.6593 31.7494 31.2163 31.0201 31.9455L30.3951 32.5706C29.9944 32.9713 29.7259 33.2318 29.5897 33.352C29.4614 33.4642 29.189 33.6725 28.7722 33.977C28.7162 33.937 28.6681 33.937 28.628 33.977C28.612 33.9931 28.5959 34.0171 28.5799 34.0492C28.5639 34.0812 28.5439 34.1093 28.5198 34.1333C28.7522 34.3657 29.0367 34.5941 29.3733 34.8185C29.7179 35.0349 30.0144 35.1471 30.2628 35.1551C30.3991 35.1631 30.6635 35.075 31.0562 34.8906C31.2485 34.7945 31.3808 34.7344 31.4529 34.7103C31.7013 34.6702 31.8776 34.5981 31.9818 34.4939C32.1661 34.3096 32.3424 34.0852 32.5107 33.8208C32.679 33.5563 32.7752 33.4041 32.7992 33.364C33.0797 32.8751 33.3362 32.5145 33.5686 32.2821C33.6727 32.1779 33.7889 32.1579 33.9172 32.222C34.0454 32.2701 34.1816 32.3663 34.3259 32.5105C34.4781 32.6628 34.5623 32.771 34.5783 32.8351C34.5943 32.8992 34.5783 32.9713 34.5302 33.0514C34.4741 33.1236 34.4541 33.2077 34.4701 33.3039C34.4381 33.368 34.0494 33.9169 33.3041 34.9507C32.9675 35.2873 32.659 35.5798 32.3785 35.8283C32.106 36.0687 31.8215 36.265 31.525 36.4173C31.1964 36.5856 30.7557 36.6497 30.2027 36.6096C29.6578 36.5615 29.1209 36.4413 28.5919 36.249C28.063 36.0567 27.6703 35.8323 27.4139 35.5758ZM28.9165 29.4813C28.9806 29.5454 29.1489 29.5694 29.4214 29.5534C29.6938 29.5374 29.8541 29.5053 29.9022 29.4572C29.9503 29.4091 29.9984 29.329 30.0465 29.2168C30.0945 29.1046 30.0985 29.0285 30.0585 28.9884C30.0104 28.9403 29.9262 28.8882 29.806 28.8321C29.6778 28.768 29.6057 28.728 29.5897 28.7119C29.6137 28.736 29.6137 28.776 29.5897 28.8321C29.5656 28.8722 29.5416 28.9043 29.5175 28.9283C29.4454 28.9844 29.3372 29.0285 29.193 29.0605C29.0567 29.0846 28.9526 29.0605 28.8804 28.9884C28.648 29.2208 28.4757 29.2809 28.3635 29.1687C28.3475 29.1847 28.3435 29.2449 28.3515 29.349C28.3595 29.4532 28.2994 29.5694 28.1712 29.6976C28.1311 29.7377 28.075 29.7617 28.0029 29.7698C27.9308 29.7778 27.8627 29.8138 27.7986 29.8779L27.6543 30.0462C27.6784 30.0382 27.7665 30.0543 27.9188 30.0943C28.079 30.1264 28.1832 30.1264 28.2313 30.0943C28.2473 30.0783 28.2634 30.0382 28.2794 29.9741C28.2954 29.894 28.3195 29.8379 28.3515 29.8058C28.3916 29.7818 28.4757 29.7457 28.604 29.6976C28.7242 29.6415 28.8283 29.5694 28.9165 29.4813ZM28.1712 35.2032C28.2433 35.131 28.2994 35.0429 28.3395 34.9387C28.3796 34.8185 28.3675 34.7263 28.3034 34.6622C28.2874 34.6462 28.2513 34.6342 28.1953 34.6262C28.1311 34.6101 28.0831 34.5861 28.051 34.554C28.0109 34.4819 27.9709 34.3858 27.9308 34.2655C27.8827 34.1373 27.8146 34.0291 27.7264 33.941C27.6623 33.8769 27.6022 33.8488 27.5461 33.8568C27.49 33.8488 27.4219 33.8608 27.3418 33.8929C27.2696 33.9169 27.2176 33.9129 27.1855 33.8809C27.1534 33.8488 27.1054 33.7527 27.0413 33.5924C26.9771 33.4161 26.9251 33.3079 26.885 33.2678C26.8048 33.1877 26.7487 32.9793 26.7167 32.6427C26.6846 32.4344 26.6566 32.2701 26.6325 32.1499C26.6085 32.0297 26.5604 31.9335 26.4883 31.8614C26.5203 31.8293 26.5724 31.7933 26.6446 31.7532C26.7167 31.7131 26.7808 31.665 26.8369 31.6089C26.8609 31.5849 26.8569 31.5488 26.8249 31.5008C26.7848 31.4447 26.7688 31.4046 26.7768 31.3806C26.8169 31.2924 26.9331 31.1522 27.1254 30.9598C27.3017 30.7675 27.4339 30.6192 27.5221 30.5151C27.6022 30.4029 27.6263 30.3227 27.5942 30.2746C27.466 30.3227 27.3578 30.3828 27.2696 30.4549C27.1735 30.5191 27.0613 30.6152 26.9331 30.7434C26.3881 31.2884 26.1557 31.8894 26.2359 32.5466C26.324 33.1957 26.6486 33.8007 27.2095 34.3617L27.5942 33.977L27.6663 34.0492V34.9387L27.8947 35.1671L27.9548 34.9387L28.039 35.3114L28.1712 35.2032ZM27.462 33.0995C27.5822 33.1396 27.8707 32.9633 28.3275 32.5706C28.7843 32.1619 29.1569 31.8133 29.4454 31.5248C29.5897 31.3806 29.766 31.1722 29.9743 30.8997C30.1667 30.6433 30.335 30.4429 30.4792 30.2987C30.4391 30.2586 30.3309 30.2065 30.1546 30.1424C29.9703 30.0703 29.8621 30.0502 29.8301 30.0823L29.8181 30.1184C29.5937 30.0062 29.2731 30.0462 28.8564 30.2386C28.4477 30.4229 28.1392 30.6192 27.9308 30.8276C27.6102 31.1481 27.4059 31.5048 27.3177 31.8974C27.2296 32.2901 27.2777 32.6908 27.462 33.0995ZM31.0682 29.9982C31.1884 30.1184 31.2285 30.2386 31.1884 30.3588C31.1404 30.471 31.0402 30.6032 30.8879 30.7555C30.7677 30.8917 30.6876 31.0039 30.6475 31.0921C30.6074 31.1802 30.6275 31.2644 30.7076 31.3445C30.9721 31.08 31.1724 30.8637 31.3086 30.6954C31.4449 30.5271 31.489 30.3868 31.4409 30.2746C31.5451 30.2987 31.6332 30.2746 31.7053 30.2025C31.6412 30.1384 31.5571 30.0863 31.4529 30.0462C31.3487 29.9901 31.2766 29.9421 31.2365 29.902C31.2045 29.8699 31.1924 29.8259 31.2005 29.7698C31.2165 29.7057 31.2165 29.6496 31.2005 29.6015C31.1924 29.5454 31.1404 29.4692 31.0442 29.3731C30.7316 29.0605 30.4832 28.9964 30.2989 29.1807C30.2188 29.2609 30.1907 29.337 30.2147 29.4091C30.2388 29.4652 30.3109 29.5534 30.4311 29.6736C30.7837 29.8499 30.9801 29.9421 31.0201 29.9501L31.0682 29.9982ZM27.9548 33.4C27.8827 33.4722 27.8466 33.5643 27.8466 33.6765C27.8547 33.7807 27.8947 33.8689 27.9669 33.941C28.071 33.8368 28.1191 33.7487 28.1111 33.6765C28.1111 33.5964 28.059 33.5042 27.9548 33.4ZM28.2914 33.2798C28.2754 33.2959 28.2634 33.38 28.2554 33.5323C28.2554 33.6765 28.2594 33.8007 28.2674 33.9049L28.4717 33.6044C28.4878 33.5884 28.5318 33.5283 28.604 33.4241C28.6761 33.3039 28.7362 33.1396 28.7843 32.9312C28.7522 32.9473 28.604 33.0474 28.3395 33.2318L28.2914 33.2798ZM28.9285 33.0755C29.1449 32.9713 29.3132 32.8591 29.4334 32.7389C29.5055 32.6668 29.5416 32.5826 29.5416 32.4865C29.5496 32.3823 29.5175 32.2941 29.4454 32.222C29.0447 32.6227 28.8724 32.9072 28.9285 33.0755ZM29.9984 31.8614C29.8862 31.9736 29.79 32.1018 29.7099 32.2461C29.6297 32.3743 29.6257 32.4744 29.6979 32.5466L29.7459 32.5706C29.762 32.5546 29.8942 32.4063 30.1426 32.1258C30.3911 31.8293 30.4792 31.6049 30.4071 31.4527L30.0705 31.7893L29.9984 31.8614ZM28.5559 35.0349C28.4036 35.1871 28.3315 35.3074 28.3395 35.3955C28.3395 35.4756 28.4196 35.5959 28.5799 35.7561C28.6761 35.66 28.7202 35.5438 28.7121 35.4075C28.7041 35.2553 28.652 35.131 28.5559 35.0349ZM28.7722 35.1551C28.7803 35.1952 28.8003 35.3033 28.8324 35.4797C28.8644 35.6399 28.9285 35.7682 29.0247 35.8643C29.2571 35.6319 29.3773 35.4476 29.3853 35.3114C29.3052 35.2793 29.201 35.2553 29.0728 35.2392C28.9365 35.2152 28.8364 35.1871 28.7722 35.1551ZM29.3012 35.9725C29.3653 35.9565 29.4454 35.9725 29.5416 36.0206C29.6297 36.0607 29.6979 36.0967 29.7459 36.1288C29.8341 35.8483 29.774 35.6039 29.5656 35.3955C29.3412 35.6199 29.2531 35.8122 29.3012 35.9725ZM30.5754 36.0446C30.5273 35.8042 30.4832 35.664 30.4431 35.6239L30.3951 35.5999L29.9022 35.9725L29.8782 36.1168L30.5754 36.0446ZM30.7797 35.9845C30.8038 35.9925 30.8318 35.9965 30.8639 35.9965C30.8879 35.9885 30.912 35.9805 30.936 35.9725C30.9921 35.8844 31.0362 35.7682 31.0682 35.6239C31.1003 35.4797 31.1043 35.3955 31.0802 35.3715C31.0402 35.3314 30.9921 35.3154 30.936 35.3234C30.8799 35.3154 30.8438 35.3194 30.8278 35.3354C30.7557 35.4075 30.7156 35.5197 30.7076 35.672C30.6916 35.8162 30.7156 35.9204 30.7797 35.9845ZM31.2966 35.9004C31.513 35.7641 31.6412 35.692 31.6813 35.684C31.7614 35.684 31.8055 35.68 31.8135 35.672C31.9337 35.5518 32.0018 35.4115 32.0179 35.2513C32.0339 35.075 31.9858 34.9307 31.8736 34.8185C31.5691 35.123 31.4529 35.3114 31.525 35.3835C31.501 35.3594 31.4529 35.3434 31.3808 35.3354C31.3167 35.3194 31.2766 35.3194 31.2606 35.3354C31.2445 35.3514 31.2325 35.4436 31.2245 35.6119C31.2165 35.7641 31.2245 35.8523 31.2485 35.8763L31.2966 35.9004ZM32.1982 35.1671C32.2783 35.1671 32.3224 35.1631 32.3304 35.1551C32.4666 35.0189 32.6109 34.8425 32.7632 34.6262C32.9154 34.4098 33.0116 34.2736 33.0517 34.2175C33.3241 33.8168 33.5125 33.5643 33.6166 33.4602L33.821 33.376C33.9172 33.2798 33.9853 33.1717 34.0253 33.0514C34.0654 32.9312 34.0414 32.8271 33.9532 32.7389C33.7929 32.8992 33.6086 33.1476 33.4003 33.4842C33.3682 33.5323 33.3161 33.6164 33.244 33.7366C33.1719 33.8568 33.0957 33.965 33.0156 34.0612C32.8553 34.2215 32.691 34.4018 32.5227 34.6021C32.3545 34.7865 32.2423 34.9227 32.1862 35.0108L32.1982 35.1671ZM33.5476 22.9509C33.5717 22.9268 33.6237 22.9148 33.7039 22.9148C33.784 22.8988 33.8361 22.9028 33.8602 22.9268L34.7497 23.8164L34.7377 23.9726C34.6816 24.0287 34.4892 24.2211 34.1607 24.5496C33.8401 24.8702 33.5636 25.1947 33.3312 25.5233L33.4274 25.5954C33.5316 25.6996 33.6318 25.8559 33.7279 26.0643C33.8401 26.2726 33.9323 26.4129 34.0044 26.485C34.0204 26.501 34.0485 26.513 34.0885 26.521C34.1286 26.513 34.1527 26.505 34.1607 26.497L35.4108 27.7472C35.523 27.7472 35.6753 27.8433 35.8676 28.0357L36.1561 28.3482C36.2042 28.3162 36.3244 28.3883 36.5168 28.5646C36.7011 28.7329 36.9215 28.833 37.1779 28.8651C37.4424 28.8891 37.7669 28.7409 38.1516 28.4203C38.1756 28.3963 38.2397 28.3482 38.3439 28.2761C38.4401 28.1959 38.5363 28.1559 38.6324 28.1559C38.7206 28.1479 38.8087 28.1879 38.8969 28.2761C39.0411 28.4203 39.1373 28.5405 39.1854 28.6367C39.2335 28.7329 39.2775 28.8651 39.3176 29.0334L39.4138 29.37C39.2695 29.4982 39.0892 29.6224 38.8728 29.7426C38.6565 29.8628 38.4481 29.975 38.2478 30.0792C37.7349 30.3356 37.3903 30.544 37.214 30.7043C37.0537 30.8646 36.7732 30.8005 36.3725 30.512C35.9718 30.2074 35.6112 29.8949 35.2906 29.5743C35.0662 29.3499 34.8739 29.1175 34.7136 28.8771C34.6655 28.813 34.6095 28.7409 34.5453 28.6607C34.4812 28.5806 34.4051 28.4965 34.3169 28.4083C33.9323 28.0236 33.2351 27.4306 32.2253 26.6292C32.1452 26.6933 32.061 26.7534 31.9729 26.8095C31.8927 26.8576 31.8246 26.9017 31.7685 26.9418C31.5041 27.094 31.3278 27.2142 31.2396 27.3024C31.1995 27.3425 31.0954 27.3345 30.9271 27.2784C30.7508 27.2142 30.6266 27.1461 30.5544 27.074C30.3942 26.9137 30.3421 26.7575 30.3982 26.6052C30.4543 26.4529 30.5745 26.2766 30.7588 26.0763C30.863 25.9721 30.9351 25.892 30.9752 25.8359C31.0072 25.7717 31.0072 25.7156 30.9752 25.6676C30.7908 25.4832 30.6065 25.2749 30.4222 25.0425C30.2459 24.8021 30.1577 24.6418 30.1577 24.5616C30.302 24.4975 30.5424 24.6338 30.879 24.9704L31.1915 25.3069L31.3358 25.3069C31.3438 25.2829 31.3919 25.1467 31.48 24.8982C31.5682 24.6498 31.5802 24.4935 31.5161 24.4294L31.4079 24.3453C31.3839 24.3212 31.3077 24.2211 31.1795 24.0448C31.0513 23.8684 30.9511 23.7442 30.879 23.6721L30.8549 23.6962C30.8149 23.7362 30.7548 23.8765 30.6746 24.1169C30.5865 24.3493 30.5344 24.4735 30.5184 24.4895C30.5184 24.4094 30.5424 24.2331 30.5905 23.9606C30.3982 24.0888 30.2259 24.165 30.0736 24.189C30.0896 24.0608 30.1257 23.9526 30.1818 23.8644C30.2379 23.7603 30.318 23.6481 30.4222 23.5279C30.5665 23.3836 30.6746 23.2354 30.7468 23.0831C30.7788 23.1151 30.8429 23.1312 30.9391 23.1312C31.0272 23.1232 31.0833 23.1312 31.1074 23.1552C31.1314 23.1953 31.1675 23.2554 31.2156 23.3355C31.2556 23.4077 31.2957 23.4718 31.3358 23.5279C31.6083 23.8003 31.8367 23.9726 32.021 24.0448C32.2053 24.1169 32.3696 24.1129 32.5138 24.0327C32.6661 23.9446 32.8664 23.7763 33.1149 23.5279C33.171 23.4718 33.2391 23.3796 33.3192 23.2514C33.3994 23.1232 33.4755 23.023 33.5476 22.9509ZM31.3959 24.3333L31.4079 24.3453L31.3959 24.3333ZM32.5138 24.7059C32.4337 24.738 32.2894 24.746 32.0811 24.7299C32.065 24.7299 32.0089 24.7299 31.9128 24.7299C31.8166 24.7139 31.7485 24.7259 31.7084 24.766C31.5962 24.8782 31.5922 24.9864 31.6964 25.0906L31.7806 25.0064C31.8206 25.1747 31.7806 25.3751 31.6603 25.6075C31.5401 25.8399 31.3759 26.1003 31.1675 26.3888C31.0954 26.493 31.0313 26.5892 30.9752 26.6773C30.9271 26.7575 30.911 26.8055 30.9271 26.8216C30.9752 26.8696 31.1074 26.8256 31.3238 26.6893C31.5482 26.5451 31.7004 26.4329 31.7806 26.3528L31.9248 25.1507L32.0811 24.9944L32.0691 25.7517L32.1412 25.8238L32.5138 24.7059ZM32.8865 24.3333C32.8224 24.3974 32.7863 24.4735 32.7783 24.5616C32.7703 24.6338 32.7823 24.7339 32.8143 24.8622C32.8464 24.8141 32.8825 24.7219 32.9225 24.5857C32.9626 24.4334 32.9746 24.3252 32.9586 24.2611L32.8865 24.3333ZM33.8602 23.5279L33.4875 23.8765L33.1269 24.2611C33.0708 24.3333 33.0227 24.4695 32.9826 24.6698C32.9346 24.8622 32.9265 24.9744 32.9586 25.0064L33.0548 25.1026C33.0948 25.0625 33.1389 24.9543 33.187 24.778C33.2351 24.6017 33.2631 24.4775 33.2711 24.4054L33.3433 24.79C33.4394 24.6939 33.5596 24.5416 33.7039 24.3333C33.744 24.2772 33.792 24.213 33.8481 24.1409C33.9042 24.0688 33.9764 23.9887 34.0645 23.9005L33.8602 23.5279ZM32.5859 25.3791L32.5138 25.3069C32.4978 25.3711 32.4818 25.4352 32.4657 25.4993C32.4497 25.5474 32.4377 25.5994 32.4297 25.6555C32.3015 26.0402 32.2774 26.2726 32.3576 26.3528L32.5138 26.1965L32.5859 25.3791ZM32.8865 25.9681C32.7903 26.0643 32.7462 26.1965 32.7542 26.3648C32.7623 26.517 32.8023 26.6292 32.8744 26.7014L32.9346 26.7615C33.0467 26.8737 33.1309 26.9097 33.187 26.8696C33.211 26.7174 33.207 26.5691 33.175 26.4249C33.1429 26.2646 33.0788 26.1364 32.9826 26.0402L32.8865 25.9681ZM37.0216 29.3339C36.9495 29.2618 36.8854 29.2538 36.8293 29.3099L36.7331 29.4301L36.3124 28.9372C36.1601 28.817 35.9959 28.7008 35.8195 28.5886C35.6352 28.4684 35.503 28.3843 35.4229 28.3362L35.2666 28.3482L35.2786 28.1919L35.0142 27.9034C34.8298 27.7191 34.5614 27.4827 34.2088 27.1942C33.8882 26.9538 33.6077 26.7134 33.3673 26.473C33.2711 26.5691 33.2591 26.7014 33.3312 26.8696C33.3953 27.0299 33.4835 27.1662 33.5957 27.2784C33.7079 27.3905 33.788 27.4466 33.8361 27.4466C33.8762 27.4386 33.9042 27.4426 33.9203 27.4587C33.9523 27.4907 33.9723 27.5428 33.9804 27.6149C33.9964 27.679 34.0405 27.7472 34.1126 27.8193C34.2809 27.9876 34.4051 28.0317 34.4852 27.9515L34.5093 27.9275C34.5093 27.9916 34.5493 28.0958 34.6295 28.24C34.7176 28.3763 34.8058 28.4885 34.8939 28.5766C34.95 28.5205 34.9981 28.5125 35.0382 28.5526C35.0702 28.5846 35.0983 28.6688 35.1223 28.805C35.1384 28.9332 35.1504 29.0013 35.1584 29.0094C35.2546 29.1055 35.3628 29.1736 35.483 29.2137C35.6032 29.2538 35.6793 29.2898 35.7114 29.3219C35.7755 29.386 35.8236 29.5062 35.8556 29.6825C35.8877 29.6985 35.9518 29.7226 36.0479 29.7546C36.1361 29.7787 36.1922 29.7787 36.2162 29.7546C36.2643 29.7066 36.3124 29.6424 36.3605 29.5623C36.4166 29.4742 36.4486 29.41 36.4567 29.37C36.4727 29.4501 36.4567 29.5623 36.4086 29.7066C36.3685 29.8428 36.3324 29.935 36.3004 29.983C36.677 30.3597 37.0978 30.3156 37.5626 29.8508C37.7309 30.0191 37.8751 30.0431 37.9953 29.9229C38.0354 29.8829 38.0674 29.8268 38.0915 29.7546C38.1075 29.6745 38.1035 29.5984 38.0795 29.5262C38.0955 29.5102 38.1155 29.5062 38.1396 29.5142C38.1556 29.5142 38.1716 29.5062 38.1876 29.4902L38.3199 29.6224C38.5122 29.4301 38.5803 29.1536 38.5242 28.793C38.412 28.7128 38.1917 28.8371 37.8631 29.1656C37.831 29.1977 37.799 29.2458 37.7669 29.3099C37.7429 29.366 37.7228 29.4181 37.7068 29.4661C37.7068 29.4501 37.6948 29.4301 37.6708 29.406C37.6227 29.358 37.5385 29.362 37.4183 29.4181C37.2901 29.4661 37.2019 29.5142 37.1539 29.5623C37.1058 29.6104 37.0497 29.6905 36.9856 29.8027C36.9295 29.9069 36.8734 29.987 36.8173 30.0431C36.8012 29.9951 36.8293 29.8869 36.9014 29.7186C36.9655 29.5423 37.0096 29.4261 37.0336 29.37L37.0216 29.3339ZM34.5213 27.8914L34.5093 27.9275L34.5213 27.8914ZM39.0051 29.0574C38.8768 28.9292 38.7646 28.8891 38.6685 28.9372C38.6525 29.0013 38.6484 29.0775 38.6565 29.1656C38.6645 29.2377 38.6885 29.2938 38.7286 29.3339L39.0051 29.0574ZM43.573 22.446C43.6211 22.4941 43.6812 22.5061 43.7533 22.482C43.8254 22.458 43.9376 22.4019 44.0899 22.3138C44.3062 22.1935 44.4825 22.1214 44.6188 22.0974C44.747 22.0653 44.8632 22.1014 44.9674 22.2056C45.312 22.5502 45.4402 22.8787 45.3521 23.1913C45.0235 23.3596 44.8031 23.4838 44.6909 23.5639C44.5787 23.6441 44.2942 23.7202 43.8374 23.7923C43.605 23.8324 43.4808 23.8604 43.4648 23.8765C43.4007 23.9406 43.3486 24.0728 43.3085 24.2732C43.2765 24.4655 43.2444 24.5777 43.2124 24.6097C43.1082 24.8902 43.004 25.1306 42.8998 25.331C42.7956 25.5313 42.6594 25.7156 42.4911 25.8839C42.1786 26.1965 41.7979 26.4489 41.3491 26.6413C40.9003 26.8336 40.4395 26.9097 39.9667 26.8696C39.4859 26.8216 39.0531 26.6052 38.6685 26.2205C38.5643 26.1163 38.4281 25.924 38.2598 25.6435C38.0915 25.347 37.9793 25.1226 37.9232 24.9704C37.8591 24.6017 37.9192 24.2211 38.1035 23.8284C38.2878 23.4357 38.5723 22.9669 38.957 22.4219C39.2535 21.9812 39.4538 21.6526 39.558 21.4362C39.6542 21.2118 39.6422 21.0396 39.522 20.9193C39.2815 20.6789 39.0011 20.5587 38.6805 20.5587C38.3599 20.5427 38.0594 20.6749 37.7789 20.9554C37.6667 21.0676 37.5746 21.1918 37.5025 21.328C37.4303 21.4643 37.3462 21.6526 37.25 21.893C37.1218 22.2456 37.0016 22.478 36.8894 22.5902C36.681 22.7986 36.3645 22.6904 35.9398 22.2657C35.6513 21.9772 35.5791 21.6726 35.7234 21.3521C35.8596 21.0235 36.1121 20.6749 36.4807 20.3063C36.5528 20.2342 36.653 20.15 36.7812 20.0538C36.9174 19.9497 37.0176 19.8735 37.0817 19.8254C37.3382 19.6491 37.5345 19.4929 37.6708 19.3566L37.9352 19.0681C38.1356 18.8678 38.3119 18.8437 38.4641 18.996C38.5603 18.8998 38.6484 18.8437 38.7286 18.8277C38.8007 18.8037 38.8808 18.8357 38.969 18.9239C39.1934 18.6995 39.538 18.7235 40.0028 18.996C40.4676 19.2685 40.8603 19.565 41.1808 19.8856C41.3972 20.1019 41.6737 20.4425 42.0103 20.9073C42.3469 21.3721 42.6113 21.7007 42.8036 21.893C42.8517 21.9411 42.9319 22.0052 43.0441 22.0854C43.1482 22.1575 43.2244 22.2176 43.2725 22.2657L43.3686 22.3859L43.573 22.446ZM37.262 20.5828C37.3582 20.4866 37.4784 20.3984 37.6227 20.3183C37.7669 20.2542 37.9032 20.158 38.0314 20.0298C37.8471 19.8455 37.7108 19.7974 37.6227 19.8856C37.5906 19.9176 37.5626 19.9617 37.5385 20.0178C37.5145 20.0579 37.4824 20.0979 37.4424 20.138L37.1178 20.4385C36.8533 20.703 36.661 20.9193 36.5408 21.0876C36.4126 21.2479 36.2683 21.4883 36.108 21.8089C36.1401 21.8409 36.1962 21.881 36.2763 21.9291C36.3645 21.9692 36.4246 21.9892 36.4567 21.9892C36.5448 21.901 36.657 21.7328 36.7932 21.4843C36.9295 21.2199 36.9856 21.0195 36.9615 20.8833L37.1779 20.8592C37.1859 20.8512 37.1939 20.8112 37.2019 20.739C37.21 20.6669 37.23 20.6148 37.262 20.5828ZM38.4281 20.0418C38.5082 19.9617 38.5923 19.8455 38.6805 19.6932C38.7606 19.5329 38.7727 19.4248 38.7166 19.3687C38.6364 19.2885 38.4882 19.3566 38.2718 19.573C38.1997 19.6451 38.1676 19.7413 38.1756 19.8615C38.1756 19.9737 38.2157 20.0699 38.2958 20.15L38.4281 20.0418ZM39.0772 20.0178C39.1012 20.0418 39.1453 20.0538 39.2094 20.0538C39.2735 20.0538 39.3256 20.0338 39.3657 19.9937C39.4779 19.8815 39.538 19.7894 39.546 19.7173C39.562 19.6371 39.53 19.557 39.4498 19.4768C39.3937 19.4207 39.3056 19.3807 39.1854 19.3566C39.0732 19.3246 38.989 19.3366 38.9329 19.3927L39.0772 20.0178ZM39.8585 19.6211C39.8425 19.6531 39.8024 19.7253 39.7383 19.8375C39.6742 19.9497 39.6422 20.0619 39.6422 20.1741C39.6422 20.2702 39.6782 20.3544 39.7504 20.4265C39.9026 20.2742 39.9387 20.0058 39.8585 19.6211ZM40.4355 19.9096C40.4035 19.8775 40.3514 19.8575 40.2793 19.8495C40.2152 19.8335 40.1751 19.8335 40.1591 19.8495C40.111 19.8976 40.0709 20.0018 40.0389 20.162C40.0068 20.3063 39.9988 20.4265 40.0148 20.5227L40.5317 20.15C40.5157 20.134 40.4997 20.0939 40.4836 20.0298C40.4676 19.9657 40.4516 19.9256 40.4355 19.9096ZM40.3634 20.6068L39.9787 20.8472L40.0028 21.0876L40.3634 20.6068ZM40.3153 21.2559C40.3794 21.288 40.4395 21.292 40.4956 21.2679C40.5598 21.2359 40.6519 21.1838 40.7721 21.1117C40.8843 21.0315 40.9725 20.9835 41.0366 20.9674C41.0686 21.0956 41.0646 21.2118 41.0246 21.316C41.0085 21.3801 41.0045 21.4402 41.0125 21.4963C41.0286 21.5444 41.0847 21.6165 41.1808 21.7127C41.293 21.8249 41.4293 21.9211 41.5895 22.0012C41.7658 22.1134 41.8981 22.2136 41.9862 22.3017C42.0664 22.3819 42.1505 22.4901 42.2387 22.6263C42.3749 22.4099 42.3268 22.1054 42.0944 21.7127C41.862 21.32 41.5695 20.9474 41.2169 20.5948C41.0085 20.3864 40.8523 20.2542 40.7481 20.1981C40.6679 20.2782 40.5838 20.4345 40.4956 20.6669C40.4155 20.8913 40.3554 21.0876 40.3153 21.2559ZM40.0749 21.6646C40.0268 21.7127 39.9868 21.7768 39.9547 21.857C39.9227 21.9371 39.9186 22.0052 39.9427 22.0613C39.9988 22.0373 40.0709 21.9972 40.1591 21.9411C40.2552 21.877 40.3314 21.8249 40.3875 21.7848C40.4035 21.7528 40.4275 21.7047 40.4596 21.6406C40.4916 21.5765 40.5157 21.5204 40.5317 21.4723C40.4676 21.4883 40.3875 21.5204 40.2913 21.5685C40.1871 21.6085 40.115 21.6406 40.0749 21.6646ZM39.4979 22.2897L39.3296 22.7946L39.7143 22.2897H39.4979ZM39.0411 24.742C39.0572 24.7259 39.0612 24.6658 39.0531 24.5616C39.0371 24.4495 39.0171 24.3813 38.993 24.3573L38.6685 24.6819C38.6525 24.6017 38.6685 24.4975 38.7166 24.3693C38.7727 24.2331 38.8368 24.0968 38.9089 23.9606C39.0211 23.7362 39.1052 23.5479 39.1613 23.3956C39.2094 23.2354 39.2214 23.0951 39.1974 22.9749L39.1493 23.023C38.997 23.1752 38.8808 23.3155 38.8007 23.4437C38.7286 23.5639 38.7366 23.6761 38.8248 23.7803C38.7847 23.8684 38.7286 23.9887 38.6565 24.1409C38.5843 24.2772 38.5403 24.4094 38.5242 24.5376C38.5082 24.6498 38.5282 24.766 38.5843 24.8862C38.6244 24.8942 38.7045 24.8782 38.8248 24.8381C38.945 24.7981 39.0171 24.766 39.0411 24.742ZM41.277 25.1988C41.4052 25.0705 41.5535 24.8582 41.7218 24.5616C41.8901 24.2651 42.0103 23.9766 42.0824 23.6962C42.1465 23.4077 42.1104 23.1953 41.9742 23.059L41.9261 23.011C41.5575 22.6423 41.2289 22.3939 40.9404 22.2657C40.6599 22.1294 40.3754 22.2056 40.0869 22.4941C40.0469 22.5341 40.0068 22.6143 39.9667 22.7345C39.9186 22.8467 39.8786 22.9188 39.8465 22.9509C39.7584 23.039 39.6903 23.2033 39.6422 23.4437C39.6021 23.6761 39.574 23.8324 39.558 23.9125C39.542 23.9927 39.55 24.0888 39.5821 24.201C39.6141 24.2972 39.6462 24.3934 39.6782 24.4895C39.7423 24.6498 39.7824 24.786 39.7984 24.8982C39.8145 24.9944 39.7864 25.0785 39.7143 25.1507C39.9627 25.3991 40.2232 25.5313 40.4956 25.5474C40.7681 25.5634 41.0286 25.4472 41.277 25.1988ZM38.5964 25.1867C38.5723 25.2108 38.5843 25.2629 38.6324 25.343C38.6805 25.4231 38.7206 25.4792 38.7526 25.5113C38.8087 25.4552 38.8488 25.3831 38.8728 25.2949C38.8969 25.2068 38.9089 25.1226 38.9089 25.0425C38.8608 25.0585 38.8047 25.0826 38.7406 25.1146C38.6845 25.1386 38.6364 25.1627 38.5964 25.1867ZM39.3416 25.1867C39.3416 25.1386 39.3136 25.0866 39.2575 25.0305C39.2495 25.0224 39.2254 25.0385 39.1854 25.0785C39.1133 25.1507 39.0411 25.2468 38.969 25.367C38.9049 25.4792 38.8808 25.5674 38.8969 25.6315L39.3416 25.1867ZM42.5272 22.2416C42.4631 22.3057 42.431 22.4019 42.431 22.5301C42.431 22.6423 42.4631 22.7305 42.5272 22.7946C42.6313 22.6904 42.6834 22.5982 42.6834 22.5181C42.6834 22.438 42.6313 22.3458 42.5272 22.2416ZM39.1133 25.7036C39.0892 25.7277 39.0732 25.7758 39.0652 25.8479C39.0572 25.92 39.0612 25.9641 39.0772 25.9801L39.1253 26.0041C39.1493 25.9801 39.1693 25.936 39.1854 25.8719C39.2014 25.8078 39.2014 25.7677 39.1854 25.7517L39.1133 25.7036ZM39.4979 25.5834C39.3937 25.6876 39.3697 25.8318 39.4258 26.0162C39.5941 25.8479 39.6181 25.7036 39.4979 25.5834ZM42.6714 23.1793C42.6955 23.1873 42.7315 23.1913 42.7796 23.1913C42.8197 23.1833 42.8517 23.1672 42.8758 23.1432C42.8918 23.0951 42.9078 23.015 42.9239 22.9028C42.9319 22.7826 42.9239 22.7104 42.8998 22.6864C42.8758 22.6624 42.8477 22.6664 42.8157 22.6984C42.7676 22.7465 42.7275 22.8266 42.6955 22.9388C42.6634 23.035 42.6554 23.1151 42.6714 23.1793ZM39.9186 26.4369C39.9747 26.3808 39.9747 26.2846 39.9186 26.1484C39.8625 26.0122 39.8105 25.92 39.7624 25.8719C39.6822 25.9521 39.6181 26.0482 39.57 26.1604C39.53 26.2646 39.53 26.3608 39.57 26.4489C39.6101 26.473 39.6702 26.485 39.7504 26.485C39.8305 26.469 39.8866 26.4529 39.9186 26.4369ZM43.2364 23.2153C43.2604 23.2394 43.2925 23.2554 43.3326 23.2634C43.3806 23.2634 43.4127 23.2554 43.4287 23.2394C43.565 23.1031 43.5289 22.9308 43.3205 22.7225C43.2725 22.7705 43.2324 22.8507 43.2003 22.9629C43.1683 23.0751 43.1803 23.1592 43.2364 23.2153ZM40.1591 26.2926C40.2632 26.1564 40.2672 26.0402 40.1711 25.944C40.0669 26.0482 40.0629 26.1644 40.1591 26.2926ZM42.7796 24.3212C42.8597 24.2411 42.8958 24.1329 42.8878 23.9967C42.8718 23.8524 42.8197 23.7362 42.7315 23.6481L42.6113 23.5519C42.5953 23.584 42.5873 23.6401 42.5873 23.7202C42.5953 23.7923 42.6033 23.8404 42.6113 23.8644C42.6273 23.8805 42.6474 23.8925 42.6714 23.9005C42.6874 23.9005 42.6955 23.9005 42.6955 23.9005L42.5272 24.0688L42.7796 24.3212ZM42.6834 24.6819C42.6995 24.6658 42.6754 24.6097 42.6113 24.5136C42.5392 24.4094 42.4871 24.3333 42.455 24.2852C42.3268 24.4134 42.2387 24.5897 42.1906 24.8141C42.1345 25.0305 42.1705 25.2028 42.2988 25.331L42.6834 24.6819ZM43.8495 23.3956C43.8735 23.2915 43.8535 23.2073 43.7893 23.1432L43.609 23.3235C43.6812 23.3956 43.7613 23.4197 43.8495 23.3956ZM44.0899 23.2273C44.2261 23.0911 44.2782 22.9829 44.2461 22.9028C44.142 22.8787 44.0738 22.8827 44.0418 22.9148C44.0017 22.9549 43.9897 23.007 44.0057 23.0711C44.0218 23.1352 44.0498 23.1873 44.0899 23.2273ZM40.9765 26.2446C41.0246 26.2285 41.1127 26.2045 41.2409 26.1724C41.3692 26.1244 41.4533 26.0803 41.4934 26.0402C41.4533 26.0001 41.3692 25.9801 41.2409 25.9801C41.1207 25.9721 41.0446 25.9841 41.0125 26.0162C40.9564 26.0723 40.9444 26.1484 40.9765 26.2446ZM42.0584 25.7637C42.0904 25.7317 42.0904 25.6836 42.0584 25.6195C42.0263 25.5393 41.9862 25.4752 41.9381 25.4271L41.866 25.4752C41.7699 25.5714 41.7418 25.6956 41.7819 25.8479C41.9502 25.8078 42.0423 25.7798 42.0584 25.7637ZM44.3784 23.2514C44.4585 23.3315 44.6508 23.2193 44.9554 22.9148C44.8832 22.8427 44.8151 22.7906 44.751 22.7585C44.6949 22.7185 44.6388 22.7265 44.5827 22.7826C44.5186 22.8467 44.4625 22.9268 44.4144 23.023C44.3744 23.1111 44.3623 23.1873 44.3784 23.2514Z" fill="white"/>
    <defs>
        <linearGradient id="paint0_linear_504_4332" x1="72.0293" y1="-5.04706" x2="-13.8038" y2="68.2559" gradientUnits="userSpaceOnUse">
            <stop offset="0.199044" stop-color="#FC1DAE"/>
            <stop offset="1" stop-color="#00F6FF"/>
        </linearGradient>
    </defs>
</svg>
