<?xml version="1.0" encoding="UTF-8"?>
<svg xmlns="http://www.w3.org/2000/svg" xmlns:xlink="http://www.w3.org/1999/xlink" width="100%" height="100%" viewBox="0 0 720 720" version="1.1">
  <g id="spiro_4_1_1_70520" transform=" scale(1 1) translate(0 0)">
    <path style="fill:#E4CCEC;fill-rule:evenodd; stroke:none;" d="M 693.332031 360 L 691.324219 359.914063 L 685.351563 359.324219 L 675.585938 357.742188 L 662.296875 354.71875 L 645.855469 349.871094 L 626.710938 342.886719 L 605.378906 333.535156 L 582.425781 321.691406 L 558.453125 307.324219 L 534.0625 290.523438 L 509.84375 271.472656 L 486.363281 250.460938 L 464.121094 227.867188 L 443.570313 204.148438 L 425.054688 179.832031 L 408.851563 155.488281 L 395.113281 131.714844 L 383.894531 109.113281 L 375.152344 88.277344 L 368.726563 69.761719 L 364.367188 54.066406 L 361.746094 41.628906 L 360.453125 32.789063 L 360.035156 27.796875 L 360 26.792969 L 359.835938 29.800781 L 359.039063 36.742188 L 357.136719 47.417969 L 353.691406 61.53125 L 348.335938 78.695313 L 340.777344 98.441406 L 330.8125 120.230469 L 318.332031 143.492188 L 303.347656 167.628906 L 285.960938 192.03125 L 266.390625 216.117188 L 244.941406 239.332031 L 222.023438 261.1875 L 198.105469 281.261719 L 173.726563 299.21875 L 149.46875 314.820313 L 125.929688 327.929688 L 103.71875 338.515625 L 83.410156 346.664063 L 65.554688 352.546875 L 50.636719 356.4375 L 39.070313 358.683594 L 31.175781 359.714844 L 27.167969 359.988281 L 27.167969 360.011719 L 31.175781 360.285156 L 39.070313 361.316406 L 50.636719 363.5625 L 65.554688 367.453125 L 83.410156 373.335938 L 103.71875 381.484375 L 125.929688 392.070313 L 149.46875 405.179688 L 173.726563 420.78125 L 198.105469 438.738281 L 222.023438 458.8125 L 244.941406 480.667969 L 266.390625 503.882813 L 285.960938 527.96875 L 303.347656 552.371094 L 318.332031 576.507813 L 330.8125 599.769531 L 340.777344 621.558594 L 348.335938 641.304688 L 353.691406 658.46875 L 357.136719 672.582031 L 359.039063 683.257813 L 359.835938 690.199219 L 360 693.207031 L 360.035156 692.203125 L 360.453125 687.210938 L 361.746094 678.371094 L 364.367188 665.933594 L 368.726563 650.238281 L 375.152344 631.722656 L 383.894531 610.886719 L 395.113281 588.285156 L 408.851563 564.511719 L 425.054688 540.167969 L 443.570313 515.851563 L 464.121094 492.132813 L 486.363281 469.539063 L 509.84375 448.527344 L 534.0625 429.476563 L 558.453125 412.675781 L 582.425781 398.308594 L 605.378906 386.464844 L 626.710938 377.113281 L 645.855469 370.128906 L 662.296875 365.28125 L 675.585938 362.257813 L 685.351563 360.675781 L 691.324219 360.085938 Z M 693.332031 360 "/>
  </g>
  <g xmlns="http://www.w3.org/2000/svg" id="spiro_4_1_1_70520" transform=" scale(0.866025403784439 0.866025403784439) translate(55.6921938165306 55.6921938165306)">
    <path style="fill:#D2AAE0;fill-rule:evenodd; stroke:none;" d="M 693.332031 360 L 691.324219 359.914063 L 685.351563 359.324219 L 675.585938 357.742188 L 662.296875 354.71875 L 645.855469 349.871094 L 626.710938 342.886719 L 605.378906 333.535156 L 582.425781 321.691406 L 558.453125 307.324219 L 534.0625 290.523438 L 509.84375 271.472656 L 486.363281 250.460938 L 464.121094 227.867188 L 443.570313 204.148438 L 425.054688 179.832031 L 408.851563 155.488281 L 395.113281 131.714844 L 383.894531 109.113281 L 375.152344 88.277344 L 368.726563 69.761719 L 364.367188 54.066406 L 361.746094 41.628906 L 360.453125 32.789063 L 360.035156 27.796875 L 360 26.792969 L 359.835938 29.800781 L 359.039063 36.742188 L 357.136719 47.417969 L 353.691406 61.53125 L 348.335938 78.695313 L 340.777344 98.441406 L 330.8125 120.230469 L 318.332031 143.492188 L 303.347656 167.628906 L 285.960938 192.03125 L 266.390625 216.117188 L 244.941406 239.332031 L 222.023438 261.1875 L 198.105469 281.261719 L 173.726563 299.21875 L 149.46875 314.820313 L 125.929688 327.929688 L 103.71875 338.515625 L 83.410156 346.664063 L 65.554688 352.546875 L 50.636719 356.4375 L 39.070313 358.683594 L 31.175781 359.714844 L 27.167969 359.988281 L 27.167969 360.011719 L 31.175781 360.285156 L 39.070313 361.316406 L 50.636719 363.5625 L 65.554688 367.453125 L 83.410156 373.335938 L 103.71875 381.484375 L 125.929688 392.070313 L 149.46875 405.179688 L 173.726563 420.78125 L 198.105469 438.738281 L 222.023438 458.8125 L 244.941406 480.667969 L 266.390625 503.882813 L 285.960938 527.96875 L 303.347656 552.371094 L 318.332031 576.507813 L 330.8125 599.769531 L 340.777344 621.558594 L 348.335938 641.304688 L 353.691406 658.46875 L 357.136719 672.582031 L 359.039063 683.257813 L 359.835938 690.199219 L 360 693.207031 L 360.035156 692.203125 L 360.453125 687.210938 L 361.746094 678.371094 L 364.367188 665.933594 L 368.726563 650.238281 L 375.152344 631.722656 L 383.894531 610.886719 L 395.113281 588.285156 L 408.851563 564.511719 L 425.054688 540.167969 L 443.570313 515.851563 L 464.121094 492.132813 L 486.363281 469.539063 L 509.84375 448.527344 L 534.0625 429.476563 L 558.453125 412.675781 L 582.425781 398.308594 L 605.378906 386.464844 L 626.710938 377.113281 L 645.855469 370.128906 L 662.296875 365.28125 L 675.585938 362.257813 L 685.351563 360.675781 L 691.324219 360.085938 Z M 693.332031 360 "/>
  </g>
  <g xmlns="http://www.w3.org/2000/svg" id="spiro_4_1_1_70520" transform=" scale(0.75 0.75) translate(120 120)">
    <path style="fill:#C188D3;fill-rule:evenodd; stroke:none;" d="M 693.332031 360 L 691.324219 359.914063 L 685.351563 359.324219 L 675.585938 357.742188 L 662.296875 354.71875 L 645.855469 349.871094 L 626.710938 342.886719 L 605.378906 333.535156 L 582.425781 321.691406 L 558.453125 307.324219 L 534.0625 290.523438 L 509.84375 271.472656 L 486.363281 250.460938 L 464.121094 227.867188 L 443.570313 204.148438 L 425.054688 179.832031 L 408.851563 155.488281 L 395.113281 131.714844 L 383.894531 109.113281 L 375.152344 88.277344 L 368.726563 69.761719 L 364.367188 54.066406 L 361.746094 41.628906 L 360.453125 32.789063 L 360.035156 27.796875 L 360 26.792969 L 359.835938 29.800781 L 359.039063 36.742188 L 357.136719 47.417969 L 353.691406 61.53125 L 348.335938 78.695313 L 340.777344 98.441406 L 330.8125 120.230469 L 318.332031 143.492188 L 303.347656 167.628906 L 285.960938 192.03125 L 266.390625 216.117188 L 244.941406 239.332031 L 222.023438 261.1875 L 198.105469 281.261719 L 173.726563 299.21875 L 149.46875 314.820313 L 125.929688 327.929688 L 103.71875 338.515625 L 83.410156 346.664063 L 65.554688 352.546875 L 50.636719 356.4375 L 39.070313 358.683594 L 31.175781 359.714844 L 27.167969 359.988281 L 27.167969 360.011719 L 31.175781 360.285156 L 39.070313 361.316406 L 50.636719 363.5625 L 65.554688 367.453125 L 83.410156 373.335938 L 103.71875 381.484375 L 125.929688 392.070313 L 149.46875 405.179688 L 173.726563 420.78125 L 198.105469 438.738281 L 222.023438 458.8125 L 244.941406 480.667969 L 266.390625 503.882813 L 285.960938 527.96875 L 303.347656 552.371094 L 318.332031 576.507813 L 330.8125 599.769531 L 340.777344 621.558594 L 348.335938 641.304688 L 353.691406 658.46875 L 357.136719 672.582031 L 359.039063 683.257813 L 359.835938 690.199219 L 360 693.207031 L 360.035156 692.203125 L 360.453125 687.210938 L 361.746094 678.371094 L 364.367188 665.933594 L 368.726563 650.238281 L 375.152344 631.722656 L 383.894531 610.886719 L 395.113281 588.285156 L 408.851563 564.511719 L 425.054688 540.167969 L 443.570313 515.851563 L 464.121094 492.132813 L 486.363281 469.539063 L 509.84375 448.527344 L 534.0625 429.476563 L 558.453125 412.675781 L 582.425781 398.308594 L 605.378906 386.464844 L 626.710938 377.113281 L 645.855469 370.128906 L 662.296875 365.28125 L 675.585938 362.257813 L 685.351563 360.675781 L 691.324219 360.085938 Z M 693.332031 360 "/>
  </g>
  <g xmlns="http://www.w3.org/2000/svg" id="spiro_4_1_1_70520" transform=" scale(0.649519052838329 0.649519052838329) translate(194.256258422041 194.256258422041)">
    <path style="fill:#AF66C7;fill-rule:evenodd; stroke:none;" d="M 693.332031 360 L 691.324219 359.914063 L 685.351563 359.324219 L 675.585938 357.742188 L 662.296875 354.71875 L 645.855469 349.871094 L 626.710938 342.886719 L 605.378906 333.535156 L 582.425781 321.691406 L 558.453125 307.324219 L 534.0625 290.523438 L 509.84375 271.472656 L 486.363281 250.460938 L 464.121094 227.867188 L 443.570313 204.148438 L 425.054688 179.832031 L 408.851563 155.488281 L 395.113281 131.714844 L 383.894531 109.113281 L 375.152344 88.277344 L 368.726563 69.761719 L 364.367188 54.066406 L 361.746094 41.628906 L 360.453125 32.789063 L 360.035156 27.796875 L 360 26.792969 L 359.835938 29.800781 L 359.039063 36.742188 L 357.136719 47.417969 L 353.691406 61.53125 L 348.335938 78.695313 L 340.777344 98.441406 L 330.8125 120.230469 L 318.332031 143.492188 L 303.347656 167.628906 L 285.960938 192.03125 L 266.390625 216.117188 L 244.941406 239.332031 L 222.023438 261.1875 L 198.105469 281.261719 L 173.726563 299.21875 L 149.46875 314.820313 L 125.929688 327.929688 L 103.71875 338.515625 L 83.410156 346.664063 L 65.554688 352.546875 L 50.636719 356.4375 L 39.070313 358.683594 L 31.175781 359.714844 L 27.167969 359.988281 L 27.167969 360.011719 L 31.175781 360.285156 L 39.070313 361.316406 L 50.636719 363.5625 L 65.554688 367.453125 L 83.410156 373.335938 L 103.71875 381.484375 L 125.929688 392.070313 L 149.46875 405.179688 L 173.726563 420.78125 L 198.105469 438.738281 L 222.023438 458.8125 L 244.941406 480.667969 L 266.390625 503.882813 L 285.960938 527.96875 L 303.347656 552.371094 L 318.332031 576.507813 L 330.8125 599.769531 L 340.777344 621.558594 L 348.335938 641.304688 L 353.691406 658.46875 L 357.136719 672.582031 L 359.039063 683.257813 L 359.835938 690.199219 L 360 693.207031 L 360.035156 692.203125 L 360.453125 687.210938 L 361.746094 678.371094 L 364.367188 665.933594 L 368.726563 650.238281 L 375.152344 631.722656 L 383.894531 610.886719 L 395.113281 588.285156 L 408.851563 564.511719 L 425.054688 540.167969 L 443.570313 515.851563 L 464.121094 492.132813 L 486.363281 469.539063 L 509.84375 448.527344 L 534.0625 429.476563 L 558.453125 412.675781 L 582.425781 398.308594 L 605.378906 386.464844 L 626.710938 377.113281 L 645.855469 370.128906 L 662.296875 365.28125 L 675.585938 362.257813 L 685.351563 360.675781 L 691.324219 360.085938 Z M 693.332031 360 "/>
  </g>
  <g xmlns="http://www.w3.org/2000/svg" id="spiro_4_1_1_70520" transform=" scale(0.5625 0.5625) translate(280 280)">
    <path style="fill:#9D44BB;fill-rule:evenodd; stroke:none;" d="M 693.332031 360 L 691.324219 359.914063 L 685.351563 359.324219 L 675.585938 357.742188 L 662.296875 354.71875 L 645.855469 349.871094 L 626.710938 342.886719 L 605.378906 333.535156 L 582.425781 321.691406 L 558.453125 307.324219 L 534.0625 290.523438 L 509.84375 271.472656 L 486.363281 250.460938 L 464.121094 227.867188 L 443.570313 204.148438 L 425.054688 179.832031 L 408.851563 155.488281 L 395.113281 131.714844 L 383.894531 109.113281 L 375.152344 88.277344 L 368.726563 69.761719 L 364.367188 54.066406 L 361.746094 41.628906 L 360.453125 32.789063 L 360.035156 27.796875 L 360 26.792969 L 359.835938 29.800781 L 359.039063 36.742188 L 357.136719 47.417969 L 353.691406 61.53125 L 348.335938 78.695313 L 340.777344 98.441406 L 330.8125 120.230469 L 318.332031 143.492188 L 303.347656 167.628906 L 285.960938 192.03125 L 266.390625 216.117188 L 244.941406 239.332031 L 222.023438 261.1875 L 198.105469 281.261719 L 173.726563 299.21875 L 149.46875 314.820313 L 125.929688 327.929688 L 103.71875 338.515625 L 83.410156 346.664063 L 65.554688 352.546875 L 50.636719 356.4375 L 39.070313 358.683594 L 31.175781 359.714844 L 27.167969 359.988281 L 27.167969 360.011719 L 31.175781 360.285156 L 39.070313 361.316406 L 50.636719 363.5625 L 65.554688 367.453125 L 83.410156 373.335938 L 103.71875 381.484375 L 125.929688 392.070313 L 149.46875 405.179688 L 173.726563 420.78125 L 198.105469 438.738281 L 222.023438 458.8125 L 244.941406 480.667969 L 266.390625 503.882813 L 285.960938 527.96875 L 303.347656 552.371094 L 318.332031 576.507813 L 330.8125 599.769531 L 340.777344 621.558594 L 348.335938 641.304688 L 353.691406 658.46875 L 357.136719 672.582031 L 359.039063 683.257813 L 359.835938 690.199219 L 360 693.207031 L 360.035156 692.203125 L 360.453125 687.210938 L 361.746094 678.371094 L 364.367188 665.933594 L 368.726563 650.238281 L 375.152344 631.722656 L 383.894531 610.886719 L 395.113281 588.285156 L 408.851563 564.511719 L 425.054688 540.167969 L 443.570313 515.851563 L 464.121094 492.132813 L 486.363281 469.539063 L 509.84375 448.527344 L 534.0625 429.476563 L 558.453125 412.675781 L 582.425781 398.308594 L 605.378906 386.464844 L 626.710938 377.113281 L 645.855469 370.128906 L 662.296875 365.28125 L 675.585938 362.257813 L 685.351563 360.675781 L 691.324219 360.085938 Z M 693.332031 360 "/>
  </g>
  <g xmlns="http://www.w3.org/2000/svg" id="spiro_4_1_1_70520" transform=" scale(0.487139289628747 0.487139289628747) translate(379.008344562721 379.008344562721)">
    <path style="fill:#803899;fill-rule:evenodd; stroke:none;" d="M 693.332031 360 L 691.324219 359.914063 L 685.351563 359.324219 L 675.585938 357.742188 L 662.296875 354.71875 L 645.855469 349.871094 L 626.710938 342.886719 L 605.378906 333.535156 L 582.425781 321.691406 L 558.453125 307.324219 L 534.0625 290.523438 L 509.84375 271.472656 L 486.363281 250.460938 L 464.121094 227.867188 L 443.570313 204.148438 L 425.054688 179.832031 L 408.851563 155.488281 L 395.113281 131.714844 L 383.894531 109.113281 L 375.152344 88.277344 L 368.726563 69.761719 L 364.367188 54.066406 L 361.746094 41.628906 L 360.453125 32.789063 L 360.035156 27.796875 L 360 26.792969 L 359.835938 29.800781 L 359.039063 36.742188 L 357.136719 47.417969 L 353.691406 61.53125 L 348.335938 78.695313 L 340.777344 98.441406 L 330.8125 120.230469 L 318.332031 143.492188 L 303.347656 167.628906 L 285.960938 192.03125 L 266.390625 216.117188 L 244.941406 239.332031 L 222.023438 261.1875 L 198.105469 281.261719 L 173.726563 299.21875 L 149.46875 314.820313 L 125.929688 327.929688 L 103.71875 338.515625 L 83.410156 346.664063 L 65.554688 352.546875 L 50.636719 356.4375 L 39.070313 358.683594 L 31.175781 359.714844 L 27.167969 359.988281 L 27.167969 360.011719 L 31.175781 360.285156 L 39.070313 361.316406 L 50.636719 363.5625 L 65.554688 367.453125 L 83.410156 373.335938 L 103.71875 381.484375 L 125.929688 392.070313 L 149.46875 405.179688 L 173.726563 420.78125 L 198.105469 438.738281 L 222.023438 458.8125 L 244.941406 480.667969 L 266.390625 503.882813 L 285.960938 527.96875 L 303.347656 552.371094 L 318.332031 576.507813 L 330.8125 599.769531 L 340.777344 621.558594 L 348.335938 641.304688 L 353.691406 658.46875 L 357.136719 672.582031 L 359.039063 683.257813 L 359.835938 690.199219 L 360 693.207031 L 360.035156 692.203125 L 360.453125 687.210938 L 361.746094 678.371094 L 364.367188 665.933594 L 368.726563 650.238281 L 375.152344 631.722656 L 383.894531 610.886719 L 395.113281 588.285156 L 408.851563 564.511719 L 425.054688 540.167969 L 443.570313 515.851563 L 464.121094 492.132813 L 486.363281 469.539063 L 509.84375 448.527344 L 534.0625 429.476563 L 558.453125 412.675781 L 582.425781 398.308594 L 605.378906 386.464844 L 626.710938 377.113281 L 645.855469 370.128906 L 662.296875 365.28125 L 675.585938 362.257813 L 685.351563 360.675781 L 691.324219 360.085938 Z M 693.332031 360 "/>
  </g>
  <g xmlns="http://www.w3.org/2000/svg" id="spiro_4_1_1_70520" transform=" scale(0.421875 0.421875) translate(493.333333333333 493.333333333333)">
    <path style="fill:#642C77;fill-rule:evenodd; stroke:none;" d="M 693.332031 360 L 691.324219 359.914063 L 685.351563 359.324219 L 675.585938 357.742188 L 662.296875 354.71875 L 645.855469 349.871094 L 626.710938 342.886719 L 605.378906 333.535156 L 582.425781 321.691406 L 558.453125 307.324219 L 534.0625 290.523438 L 509.84375 271.472656 L 486.363281 250.460938 L 464.121094 227.867188 L 443.570313 204.148438 L 425.054688 179.832031 L 408.851563 155.488281 L 395.113281 131.714844 L 383.894531 109.113281 L 375.152344 88.277344 L 368.726563 69.761719 L 364.367188 54.066406 L 361.746094 41.628906 L 360.453125 32.789063 L 360.035156 27.796875 L 360 26.792969 L 359.835938 29.800781 L 359.039063 36.742188 L 357.136719 47.417969 L 353.691406 61.53125 L 348.335938 78.695313 L 340.777344 98.441406 L 330.8125 120.230469 L 318.332031 143.492188 L 303.347656 167.628906 L 285.960938 192.03125 L 266.390625 216.117188 L 244.941406 239.332031 L 222.023438 261.1875 L 198.105469 281.261719 L 173.726563 299.21875 L 149.46875 314.820313 L 125.929688 327.929688 L 103.71875 338.515625 L 83.410156 346.664063 L 65.554688 352.546875 L 50.636719 356.4375 L 39.070313 358.683594 L 31.175781 359.714844 L 27.167969 359.988281 L 27.167969 360.011719 L 31.175781 360.285156 L 39.070313 361.316406 L 50.636719 363.5625 L 65.554688 367.453125 L 83.410156 373.335938 L 103.71875 381.484375 L 125.929688 392.070313 L 149.46875 405.179688 L 173.726563 420.78125 L 198.105469 438.738281 L 222.023438 458.8125 L 244.941406 480.667969 L 266.390625 503.882813 L 285.960938 527.96875 L 303.347656 552.371094 L 318.332031 576.507813 L 330.8125 599.769531 L 340.777344 621.558594 L 348.335938 641.304688 L 353.691406 658.46875 L 357.136719 672.582031 L 359.039063 683.257813 L 359.835938 690.199219 L 360 693.207031 L 360.035156 692.203125 L 360.453125 687.210938 L 361.746094 678.371094 L 364.367188 665.933594 L 368.726563 650.238281 L 375.152344 631.722656 L 383.894531 610.886719 L 395.113281 588.285156 L 408.851563 564.511719 L 425.054688 540.167969 L 443.570313 515.851563 L 464.121094 492.132813 L 486.363281 469.539063 L 509.84375 448.527344 L 534.0625 429.476563 L 558.453125 412.675781 L 582.425781 398.308594 L 605.378906 386.464844 L 626.710938 377.113281 L 645.855469 370.128906 L 662.296875 365.28125 L 675.585938 362.257813 L 685.351563 360.675781 L 691.324219 360.085938 Z M 693.332031 360 "/>
  </g>
  <g xmlns="http://www.w3.org/2000/svg" id="spiro_4_1_1_70520" transform=" scale(0.36535446722156 0.36535446722156) translate(625.344459416961 625.344459416961)">
    <path style="fill:#471F55;fill-rule:evenodd; stroke:none;" d="M 693.332031 360 L 691.324219 359.914063 L 685.351563 359.324219 L 675.585938 357.742188 L 662.296875 354.71875 L 645.855469 349.871094 L 626.710938 342.886719 L 605.378906 333.535156 L 582.425781 321.691406 L 558.453125 307.324219 L 534.0625 290.523438 L 509.84375 271.472656 L 486.363281 250.460938 L 464.121094 227.867188 L 443.570313 204.148438 L 425.054688 179.832031 L 408.851563 155.488281 L 395.113281 131.714844 L 383.894531 109.113281 L 375.152344 88.277344 L 368.726563 69.761719 L 364.367188 54.066406 L 361.746094 41.628906 L 360.453125 32.789063 L 360.035156 27.796875 L 360 26.792969 L 359.835938 29.800781 L 359.039063 36.742188 L 357.136719 47.417969 L 353.691406 61.53125 L 348.335938 78.695313 L 340.777344 98.441406 L 330.8125 120.230469 L 318.332031 143.492188 L 303.347656 167.628906 L 285.960938 192.03125 L 266.390625 216.117188 L 244.941406 239.332031 L 222.023438 261.1875 L 198.105469 281.261719 L 173.726563 299.21875 L 149.46875 314.820313 L 125.929688 327.929688 L 103.71875 338.515625 L 83.410156 346.664063 L 65.554688 352.546875 L 50.636719 356.4375 L 39.070313 358.683594 L 31.175781 359.714844 L 27.167969 359.988281 L 27.167969 360.011719 L 31.175781 360.285156 L 39.070313 361.316406 L 50.636719 363.5625 L 65.554688 367.453125 L 83.410156 373.335938 L 103.71875 381.484375 L 125.929688 392.070313 L 149.46875 405.179688 L 173.726563 420.78125 L 198.105469 438.738281 L 222.023438 458.8125 L 244.941406 480.667969 L 266.390625 503.882813 L 285.960938 527.96875 L 303.347656 552.371094 L 318.332031 576.507813 L 330.8125 599.769531 L 340.777344 621.558594 L 348.335938 641.304688 L 353.691406 658.46875 L 357.136719 672.582031 L 359.039063 683.257813 L 359.835938 690.199219 L 360 693.207031 L 360.035156 692.203125 L 360.453125 687.210938 L 361.746094 678.371094 L 364.367188 665.933594 L 368.726563 650.238281 L 375.152344 631.722656 L 383.894531 610.886719 L 395.113281 588.285156 L 408.851563 564.511719 L 425.054688 540.167969 L 443.570313 515.851563 L 464.121094 492.132813 L 486.363281 469.539063 L 509.84375 448.527344 L 534.0625 429.476563 L 558.453125 412.675781 L 582.425781 398.308594 L 605.378906 386.464844 L 626.710938 377.113281 L 645.855469 370.128906 L 662.296875 365.28125 L 675.585938 362.257813 L 685.351563 360.675781 L 691.324219 360.085938 Z M 693.332031 360 "/>
  </g>
  <g xmlns="http://www.w3.org/2000/svg" id="spiro_4_1_1_70520" transform=" scale(0.31640625 0.31640625) translate(777.777777777778 777.777777777778)">
    <path style="fill:#2B1333;fill-rule:evenodd; stroke:none;" d="M 693.332031 360 L 691.324219 359.914063 L 685.351563 359.324219 L 675.585938 357.742188 L 662.296875 354.71875 L 645.855469 349.871094 L 626.710938 342.886719 L 605.378906 333.535156 L 582.425781 321.691406 L 558.453125 307.324219 L 534.0625 290.523438 L 509.84375 271.472656 L 486.363281 250.460938 L 464.121094 227.867188 L 443.570313 204.148438 L 425.054688 179.832031 L 408.851563 155.488281 L 395.113281 131.714844 L 383.894531 109.113281 L 375.152344 88.277344 L 368.726563 69.761719 L 364.367188 54.066406 L 361.746094 41.628906 L 360.453125 32.789063 L 360.035156 27.796875 L 360 26.792969 L 359.835938 29.800781 L 359.039063 36.742188 L 357.136719 47.417969 L 353.691406 61.53125 L 348.335938 78.695313 L 340.777344 98.441406 L 330.8125 120.230469 L 318.332031 143.492188 L 303.347656 167.628906 L 285.960938 192.03125 L 266.390625 216.117188 L 244.941406 239.332031 L 222.023438 261.1875 L 198.105469 281.261719 L 173.726563 299.21875 L 149.46875 314.820313 L 125.929688 327.929688 L 103.71875 338.515625 L 83.410156 346.664063 L 65.554688 352.546875 L 50.636719 356.4375 L 39.070313 358.683594 L 31.175781 359.714844 L 27.167969 359.988281 L 27.167969 360.011719 L 31.175781 360.285156 L 39.070313 361.316406 L 50.636719 363.5625 L 65.554688 367.453125 L 83.410156 373.335938 L 103.71875 381.484375 L 125.929688 392.070313 L 149.46875 405.179688 L 173.726563 420.78125 L 198.105469 438.738281 L 222.023438 458.8125 L 244.941406 480.667969 L 266.390625 503.882813 L 285.960938 527.96875 L 303.347656 552.371094 L 318.332031 576.507813 L 330.8125 599.769531 L 340.777344 621.558594 L 348.335938 641.304688 L 353.691406 658.46875 L 357.136719 672.582031 L 359.039063 683.257813 L 359.835938 690.199219 L 360 693.207031 L 360.035156 692.203125 L 360.453125 687.210938 L 361.746094 678.371094 L 364.367188 665.933594 L 368.726563 650.238281 L 375.152344 631.722656 L 383.894531 610.886719 L 395.113281 588.285156 L 408.851563 564.511719 L 425.054688 540.167969 L 443.570313 515.851563 L 464.121094 492.132813 L 486.363281 469.539063 L 509.84375 448.527344 L 534.0625 429.476563 L 558.453125 412.675781 L 582.425781 398.308594 L 605.378906 386.464844 L 626.710938 377.113281 L 645.855469 370.128906 L 662.296875 365.28125 L 675.585938 362.257813 L 685.351563 360.675781 L 691.324219 360.085938 Z M 693.332031 360 "/>
  </g>
  <g xmlns="http://www.w3.org/2000/svg" id="spiro_4_1_1_70520" transform=" scale(0.27401585041617 0.27401585041617) translate(953.792612555948 953.792612555948)">
    <path style="fill:#0E0611;fill-rule:evenodd; stroke:none;" d="M 693.332031 360 L 691.324219 359.914063 L 685.351563 359.324219 L 675.585938 357.742188 L 662.296875 354.71875 L 645.855469 349.871094 L 626.710938 342.886719 L 605.378906 333.535156 L 582.425781 321.691406 L 558.453125 307.324219 L 534.0625 290.523438 L 509.84375 271.472656 L 486.363281 250.460938 L 464.121094 227.867188 L 443.570313 204.148438 L 425.054688 179.832031 L 408.851563 155.488281 L 395.113281 131.714844 L 383.894531 109.113281 L 375.152344 88.277344 L 368.726563 69.761719 L 364.367188 54.066406 L 361.746094 41.628906 L 360.453125 32.789063 L 360.035156 27.796875 L 360 26.792969 L 359.835938 29.800781 L 359.039063 36.742188 L 357.136719 47.417969 L 353.691406 61.53125 L 348.335938 78.695313 L 340.777344 98.441406 L 330.8125 120.230469 L 318.332031 143.492188 L 303.347656 167.628906 L 285.960938 192.03125 L 266.390625 216.117188 L 244.941406 239.332031 L 222.023438 261.1875 L 198.105469 281.261719 L 173.726563 299.21875 L 149.46875 314.820313 L 125.929688 327.929688 L 103.71875 338.515625 L 83.410156 346.664063 L 65.554688 352.546875 L 50.636719 356.4375 L 39.070313 358.683594 L 31.175781 359.714844 L 27.167969 359.988281 L 27.167969 360.011719 L 31.175781 360.285156 L 39.070313 361.316406 L 50.636719 363.5625 L 65.554688 367.453125 L 83.410156 373.335938 L 103.71875 381.484375 L 125.929688 392.070313 L 149.46875 405.179688 L 173.726563 420.78125 L 198.105469 438.738281 L 222.023438 458.8125 L 244.941406 480.667969 L 266.390625 503.882813 L 285.960938 527.96875 L 303.347656 552.371094 L 318.332031 576.507813 L 330.8125 599.769531 L 340.777344 621.558594 L 348.335938 641.304688 L 353.691406 658.46875 L 357.136719 672.582031 L 359.039063 683.257813 L 359.835938 690.199219 L 360 693.207031 L 360.035156 692.203125 L 360.453125 687.210938 L 361.746094 678.371094 L 364.367188 665.933594 L 368.726563 650.238281 L 375.152344 631.722656 L 383.894531 610.886719 L 395.113281 588.285156 L 408.851563 564.511719 L 425.054688 540.167969 L 443.570313 515.851563 L 464.121094 492.132813 L 486.363281 469.539063 L 509.84375 448.527344 L 534.0625 429.476563 L 558.453125 412.675781 L 582.425781 398.308594 L 605.378906 386.464844 L 626.710938 377.113281 L 645.855469 370.128906 L 662.296875 365.28125 L 675.585938 362.257813 L 685.351563 360.675781 L 691.324219 360.085938 Z M 693.332031 360 "/>
  </g>
</svg>
