<svg width="428" height="359" viewBox="0 0 428 359" fill="none" xmlns="http://www.w3.org/2000/svg">
<path d="M214.658 341.088V62.5784M214.658 341.088C244.267 294.451 280.456 289.853 370.599 283.941V69.8039M214.658 341.088C186.365 295.108 146.886 286.569 58.7166 283.941V69.8039M214.658 62.5784C257.427 14.6275 312.697 14.6275 370.599 12V69.8039M214.658 62.5784C183.733 23.1667 134.384 12 58.7166 12.6569V69.8039M370.599 69.8039H416V347H257.427M58.7166 69.8039H12V347H166.625M97.5375 98.049C127.84 100.092 144.675 103.844 174.521 115.127M97.5375 153.882C127.84 155.926 144.675 159.677 174.521 170.961M97.5375 209.059C127.84 211.102 144.675 214.854 174.521 226.137M331.121 98.049C300.818 100.092 283.983 103.844 254.137 115.127M331.121 153.882C300.818 155.926 283.983 159.677 254.137 170.961M331.121 209.059C300.818 211.102 283.983 214.854 254.137 226.137" stroke="url(#paint0_linear_38_67)" stroke-width="24" stroke-linecap="round" stroke-linejoin="round"/>
<defs>
<linearGradient id="paint0_linear_38_67" x1="385.075" y1="-9.67646" x2="11.9951" y2="374.565" gradientUnits="userSpaceOnUse">
<stop offset="0.199044" stop-color="#FC1DAE"/>
<stop offset="1" stop-color="#00F6FF"/>
</linearGradient>
</defs>
</svg>
