<svg width="276" height="276" viewBox="0 0 276 276" fill="none" xmlns="http://www.w3.org/2000/svg">
<rect width="276" height="276" rx="55" fill="white"/>
<path d="M138.296 211.253V85.7853M138.296 211.253C151.635 190.243 167.938 188.171 208.547 185.508V89.0404M138.296 211.253C125.55 190.539 107.765 186.692 68.0456 185.508V89.0404M138.296 85.7853C157.564 64.1837 182.463 64.1837 208.547 63V89.0404M138.296 85.7853C124.365 68.0305 102.134 63 68.0456 63.2959V89.0404M208.547 89.0404H229V213.916H157.564M68.0456 89.0404H47V213.916H116.658M85.5342 101.765C99.1853 102.685 106.77 104.375 120.215 109.458M85.5342 126.917C99.1853 127.838 106.77 129.528 120.215 134.611M85.5342 151.774C99.1853 152.694 106.77 154.385 120.215 159.468M190.762 101.765C177.111 102.685 169.527 104.375 156.081 109.458M190.762 126.917C177.111 127.838 169.527 129.528 156.081 134.611M190.762 151.774C177.111 152.694 169.527 154.385 156.081 159.468" stroke="url(#paint0_linear_86_1002)" stroke-width="10.8119" stroke-linecap="round" stroke-linejoin="round"/>
<defs>
<linearGradient id="paint0_linear_86_1002" x1="215.068" y1="53.2349" x2="46.9978" y2="226.334" gradientUnits="userSpaceOnUse">
<stop offset="0.199044" stop-color="#FC1DAE"/>
<stop offset="1" stop-color="#00F6FF"/>
</linearGradient>
</defs>
</svg>
